<?xml version="1.0" encoding="UTF-8"?>
<svg version="1.1" xmlns="http://www.w3.org/2000/svg" width="370" height="124">
<path d="M0 0 C122.1 0 244.2 0 370 0 C370 40.92 370 81.84 370 124 C247.9 124 125.8 124 0 124 C0 83.08 0 42.16 0 0 Z " fill="#FAFBFB" transform="translate(0,0)"/>
<path d="M0 0 C0.85916016 -0.00322266 1.71832031 -0.00644531 2.60351562 -0.00976562 C10.43286651 0.05602724 16.85737322 2.13366757 23.9375 5.3125 C23.9375 5.9725 23.9375 6.6325 23.9375 7.3125 C24.67097656 7.56257812 25.40445313 7.81265625 26.16015625 8.0703125 C35.38228731 12.19497871 40.19830838 21.41856565 43.9375 30.3125 C47.16104507 39.98313522 46.01335805 54.09329727 41.9375 63.3125 C41.2775 63.3125 40.6175 63.3125 39.9375 63.3125 C39.6590625 64.488125 39.6590625 64.488125 39.375 65.6875 C37.34754402 70.80021508 34.16388566 74.89143852 30.9375 79.3125 C30.2775 80.3025 29.6175 81.2925 28.9375 82.3125 C28.2775 82.3125 27.6175 82.3125 26.9375 82.3125 C26.9375 83.6325 26.9375 84.9525 26.9375 86.3125 C26.2775 86.3125 25.6175 86.3125 24.9375 86.3125 C24.710625 86.9725 24.48375 87.6325 24.25 88.3125 C23.12527446 90.88330124 21.92236244 93.21298176 20.5 95.625 C20.08878906 96.32238281 19.67757812 97.01976563 19.25390625 97.73828125 C18.81949219 98.25777344 18.38507813 98.77726562 17.9375 99.3125 C16.9475 99.3125 15.9575 99.3125 14.9375 99.3125 C14.9375 100.9625 14.9375 102.6125 14.9375 104.3125 C14.2775 104.3125 13.6175 104.3125 12.9375 104.3125 C12.73125 104.9725 12.525 105.6325 12.3125 106.3125 C10.45433848 110.3666706 8.06210674 114.10838673 4.9375 117.3125 C3.9475 117.3125 2.9575 117.3125 1.9375 117.3125 C1.9375 111.3725 1.9375 105.4325 1.9375 99.3125 C2.5975 99.3125 3.2575 99.3125 3.9375 99.3125 C3.2775 98.3225 2.6175 97.3325 1.9375 96.3125 C1.67989721 93.61797479 1.84849947 91.02701625 1.9375 88.3125 C-0.84369939 90.69638519 -2.18454021 92.57466046 -3.75 95.9375 C-9.19995983 107.30395319 -19.28394488 114.48820233 -30.86987305 118.70385742 C-34.70977912 119.76976165 -38.47380836 119.80071417 -42.4375 119.75 C-43.27458496 119.74170166 -44.11166992 119.73340332 -44.97412109 119.72485352 C-56.65721566 119.40556256 -64.83872871 114.67742899 -72.95703125 106.375 C-77.0625 101.75995316 -77.0625 101.75995316 -77.0625 99.3125 C-77.7225 99.3125 -78.3825 99.3125 -79.0625 99.3125 C-84.95899402 88.30571117 -87.25417488 77.18682643 -84.1875 64.76953125 C-79.09035908 50.46735624 -70.13172626 41.98937209 -56.734375 35.51171875 C-53.07077569 33.86738397 -50.35605757 33.19230351 -46.375 33.25 C-45.16263672 33.26353516 -45.16263672 33.26353516 -43.92578125 33.27734375 C-43.31089844 33.28894531 -42.69601563 33.30054688 -42.0625 33.3125 C-42.02125 32.52875 -41.98 31.745 -41.9375 30.9375 C-39.18379883 19.52930942 -30.05753243 10.37068312 -20.27734375 4.3828125 C-13.22030625 0.97253335 -7.78316092 -0.14663076 0 0 Z " fill="#04B634" transform="translate(91.0625,2.6875)"/>
<path d="M0 0 C0.74056641 0.00451172 1.48113281 0.00902344 2.24414062 0.01367188 C4.05862899 0.02537825 5.87307534 0.04331102 7.6875 0.0625 C7.6875 0.7225 7.6875 1.3825 7.6875 2.0625 C12.6375 3.0525 12.6375 3.0525 17.6875 4.0625 C17.6875 4.7225 17.6875 5.3825 17.6875 6.0625 C18.3475 6.248125 19.0075 6.43375 19.6875 6.625 C27.59518409 10.41409862 32.42355622 16.77717784 36.4375 24.375 C39.34194519 32.64149785 39.10784477 44.87933374 35.72265625 53.01953125 C35.21025391 54.03080078 35.21025391 54.03080078 34.6875 55.0625 C34.27371094 55.89136719 33.85992187 56.72023437 33.43359375 57.57421875 C28.30074844 66.93082232 20.85317542 73.26293429 10.91796875 77.14453125 C-0.26240687 80.32154246 -12.0956141 77.97823925 -22.39453125 73.0703125 C-31.36431777 67.52240842 -37.04618922 56.42801004 -40.0625 46.625 C-41.32723568 33.6614593 -38.59338894 23.48428987 -31 12.8125 C-21.93422631 3.53589436 -12.96255534 -0.15059269 0 0 Z " fill="#00B632" transform="translate(50.3125,39.9375)"/>
<path d="M0 0 C3.96 -0.144375 7.92 -0.28875 12 -0.4375 C13.84851563 -0.53309204 13.84851563 -0.53309204 15.734375 -0.63061523 C21.55064537 -0.7327955 25.23751625 -0.48262273 29.75 3.40234375 C34.36466263 8.08426315 34.32772999 11.62943145 34.296875 18.078125 C33.92056513 21.7818064 32.68646744 23.47634877 30 26 C29.67 26.99 29.34 27.98 29 29 C29.66 29 30.32 29 31 29 C31 31.31 31 33.62 31 36 C30.01 36 29.02 36 28 36 C28 34.35 28 32.7 28 31 C27.01 31 26.02 31 25 31 C25 33.97 25 36.94 25 40 C27.31 40 29.62 40 32 40 C32 44.29 32 48.58 32 53 C23.25 53.125 23.25 53.125 21 52 C21 44.74 21 37.48 21 30 C18.36 30 15.72 30 13 30 C12.01 29.34 11.02 28.68 10 28 C10 33.61 10 39.22 10 45 C9.34 45 8.68 45 8 45 C8.33 45.763125 8.66 46.52625 9 47.3125 C10 50 10 50 10 53 C8.35 53 6.7 53 5 53 C4.89042969 52.43410156 4.78085937 51.86820313 4.66796875 51.28515625 C4.50941406 50.55167969 4.35085938 49.81820312 4.1875 49.0625 C4.03667969 48.33160156 3.88585937 47.60070312 3.73046875 46.84765625 C3.36888672 45.93306641 3.36888672 45.93306641 3 45 C2.01 44.67 1.02 44.34 0 44 C0 29.48 0 14.96 0 0 Z " fill="#0FB63D" transform="translate(270,50)"/>
<path d="M0 0 C21 0 21 0 25 1 C25 1.66 25 2.32 25 3 C25.763125 3.268125 26.52625 3.53625 27.3125 3.8125 C29.91752101 4.9635558 31.24363005 5.80453756 33 8 C34.25755502 11.77266505 34.74951758 15.0997326 34 19 C32.32775015 21.9740646 30.2937182 24.48304889 28 27 C27.5875 27.5671875 27.175 28.134375 26.75 28.71875 C22.73861052 31.65566016 15.60754306 30.12681311 11 30 C11 35.94 11 41.88 11 48 C7.37 48 3.74 48 0 48 C0 32.16 0 16.32 0 0 Z " fill="#11B7FF" transform="translate(146,32)"/>
<path d="M0 0 C0.33 0 0.66 0 1 0 C1 1.65 1 3.3 1 5 C2.7015625 4.87625 2.7015625 4.87625 4.4375 4.75 C13.30042228 4.79672894 21.45824192 10.40575847 28 16 C28.495 17.485 28.495 17.485 29 19 C29.61617188 19.29390625 30.23234375 19.5878125 30.8671875 19.890625 C33.67734104 21.35231658 34.5487811 23.02668985 36.125 25.75 C36.62257813 26.59046875 37.12015625 27.4309375 37.6328125 28.296875 C40.84530027 34.64842226 41.26181456 39.88693322 41.125 46.875 C41.11597656 47.75414062 41.10695313 48.63328125 41.09765625 49.5390625 C41.07424577 51.6928271 41.0383801 53.84645014 41 56 C42.32 56 43.64 56 45 56 C45 59.3 45 62.6 45 66 C44.34 66 43.68 66 43 66 C43 63.69 43 61.38 43 59 C39.87411891 59.68007182 39.87411891 59.68007182 38.7109375 62.15234375 C38.04964844 63.53099609 38.04964844 63.53099609 37.375 64.9375 C31.03298903 76.96545185 21.91577359 84.76191409 9.19262695 89.39135742 C5.35272088 90.45726165 1.58869164 90.48821417 -2.375 90.4375 C-3.21208496 90.42920166 -4.04916992 90.42090332 -4.91162109 90.41235352 C-16.59471566 90.09306256 -24.77622871 85.36492899 -32.89453125 77.0625 C-37 72.44745316 -37 72.44745316 -37 70 C-37.66 70 -38.32 70 -39 70 C-44.89649402 58.99321117 -47.19167488 47.87432643 -44.125 35.45703125 C-39.02785908 21.15485624 -30.06922626 12.67687209 -16.671875 6.19921875 C-12.81817583 4.46956137 -10.0019985 3.88309093 -5.8125 3.9375 C-4.91144531 3.94652344 -4.01039062 3.95554688 -3.08203125 3.96484375 C-2.39496094 3.97644531 -1.70789062 3.98804688 -1 4 C-0.67 2.68 -0.34 1.36 0 0 Z M-15 10 C-15.78503906 10.30679688 -16.57007812 10.61359375 -17.37890625 10.9296875 C-26.91382968 15.05750766 -33.08227825 21.2651676 -37.8125 30.5625 C-41.58835908 41.49261839 -42.53266411 51.1080758 -38 62 C-32.89509615 71.91642242 -27.1509554 79.72915112 -16.56640625 83.9765625 C-7.70136842 86.79546012 3.10594566 88.03899299 11.875 84.375 C13.27138212 83.62168859 14.64706081 82.82880435 16 82 C16.75796875 81.57589844 17.5159375 81.15179688 18.296875 80.71484375 C24.25860876 77.12379942 28.09350588 72.70539741 32 67 C32.598125 66.154375 33.19625 65.30875 33.8125 64.4375 C38.11789243 55.60011554 38.6273571 43.67586266 36.3125 34.1796875 C35.37795414 31.94456531 34.32948731 30.02313286 33 28 C32.56429687 27.30648437 32.12859375 26.61296875 31.6796875 25.8984375 C28.2810418 20.93975771 24.18029704 17.08017662 19 14 C18.34 14 17.68 14 17 14 C17 13.34 17 12.68 17 12 C12.05 11.01 12.05 11.01 7 10 C7 9.34 7 8.68 7 8 C4.4580411 7.94565884 1.91726318 7.9061661 -0.625 7.875 C-1.33785156 7.85824219 -2.05070312 7.84148438 -2.78515625 7.82421875 C-7.27535481 7.78302427 -10.77413284 8.30248052 -15 10 Z " fill="#2A8E1E" transform="translate(51,32)"/>
<path d="M0 0 C1.04929688 -0.01417969 2.09859375 -0.02835938 3.1796875 -0.04296875 C6.06047071 0.18245063 7.68740208 0.69785683 10.125 2.1875 C10.125 1.5275 10.125 0.8675 10.125 0.1875 C13.425 0.1875 16.725 0.1875 20.125 0.1875 C20.125 10.0875 20.125 19.9875 20.125 30.1875 C16.825 30.1875 13.525 30.1875 10.125 30.1875 C10.125 29.1975 10.125 28.2075 10.125 27.1875 C9.361875 27.6825 8.59875 28.1775 7.8125 28.6875 C2.77290593 30.73750437 -1.52907476 31.47762936 -6.875 30.1875 C-11.4156546 27.06384278 -13.46327167 23.29951382 -14.5078125 17.94140625 C-14.80147366 12.4192997 -14.6257221 8.28836652 -11 3.9375 C-7.40404303 0.42840189 -5.00771481 0.0306095 0 0 Z " fill="#0EB6FF" transform="translate(238.875,49.8125)"/>
<path d="M0 0 C3.85308157 2.24084049 6.98998121 4.97996242 9 9 C9 11.64 9 14.28 9 17 C2.07 17 -4.86 17 -12 17 C-11.67 17.99 -11.34 18.98 -11 20 C-5.99853044 20.70826911 -1.97280523 20.99456105 3 20 C5.3125 20.9375 5.3125 20.9375 7 22 C6.61402985 24.79828356 6.19863427 25.8205884 4.0625 27.75 C2 29 2 29 0 29 C0 29.66 0 30.32 0 31 C-2.97 31 -5.94 31 -9 31 C-9 32.65 -9 34.3 -9 36 C-10.32 36 -11.64 36 -13 36 C-13 34.35 -13 32.7 -13 31 C-13.99 31 -14.98 31 -16 31 C-16 36.94 -16 42.88 -16 49 C-15.01 49 -14.02 49 -13 49 C-13 47.35 -13 45.7 -13 44 C-11.68 44 -10.36 44 -9 44 C-9.75 50.75 -9.75 50.75 -12 53 C-14.80469512 53.3595763 -16.34216364 53.49611988 -18.63964844 51.76342773 C-20.37335753 49.51601553 -20.36115292 48.28828641 -20.328125 45.47265625 C-20.32039062 44.16071289 -20.32039062 44.16071289 -20.3125 42.82226562 C-20.291875 41.91154297 -20.27125 41.00082031 -20.25 40.0625 C-20.24484375 39.15564453 -20.2396875 38.24878906 -20.234375 37.31445312 C-20.15425392 30.50916865 -20.15425392 30.50916865 -19.36621094 27.90795898 C-18.80176694 24.96720575 -20.56779048 23.4127949 -22.05859375 20.9921875 C-23.76512983 17.3808456 -23.69409627 13.881273 -23 10 C-18.23365595 0.28399096 -10.18744209 -1.89620273 0 0 Z " fill="#11B6FD" transform="translate(209,50)"/>
<path d="M0 0 C2.94983701 2.45819751 5.1225276 4.65339893 7.25 7.875 C7.25 10.515 7.25 13.155 7.25 15.875 C0.32 15.875 -6.61 15.875 -13.75 15.875 C-13.42 16.865 -13.09 17.855 -12.75 18.875 C-11.33566794 19.0986337 -9.91832382 19.30326476 -8.5 19.5 C-7.71109375 19.61601563 -6.9221875 19.73203125 -6.109375 19.8515625 C-3.41172109 19.87836039 -2.09200183 19.12804556 0.25 17.875 C2.4375 18.5 2.4375 18.5 4.25 19.875 C5.0625 21.9375 5.0625 21.9375 5.25 23.875 C4.92 24.205 4.59 24.535 4.25 24.875 C4.09174742 26.87282126 3.99880829 28.87588834 3.93359375 30.87890625 C3.89169922 32.09384766 3.84980469 33.30878906 3.80664062 34.56054688 C3.76732422 35.83994141 3.72800781 37.11933594 3.6875 38.4375 C3.64431641 39.72076172 3.60113281 41.00402344 3.55664062 42.32617188 C3.450152 45.50899853 3.34814038 48.69190674 3.25 51.875 C1.93 51.875 0.61 51.875 -0.75 51.875 C-0.75 44.285 -0.75 36.695 -0.75 28.875 C-4.38 28.875 -8.01 28.875 -11.75 28.875 C-17.1111108 28.08401644 -20.34619573 26.37235429 -23.63671875 22.1328125 C-25.91471188 17.51288257 -25.75240569 12.83993557 -24.75 7.875 C-22.57644946 3.46688697 -19.90310625 1.3754046 -15.4375 -0.5625 C-10.06587929 -1.38189977 -5.12382779 -2.09611137 0 0 Z " fill="#14BC43" transform="translate(356.75,51.125)"/>
<path d="M0 0 C0.33 0 0.66 0 1 0 C1 1.65 1 3.3 1 5 C2.7015625 4.87625 2.7015625 4.87625 4.4375 4.75 C13.30042228 4.79672894 21.45824192 10.40575847 28 16 C28.495 17.485 28.495 17.485 29 19 C29.61617187 19.29390625 30.23234375 19.5878125 30.8671875 19.890625 C33.67734104 21.35231658 34.5487811 23.02668985 36.125 25.75 C36.62257812 26.59046875 37.12015625 27.4309375 37.6328125 28.296875 C40.84530027 34.64842226 41.26181456 39.88693322 41.125 46.875 C41.11597656 47.75414062 41.10695312 48.63328125 41.09765625 49.5390625 C41.07424577 51.6928271 41.0383801 53.84645014 41 56 C42.32 56 43.64 56 45 56 C45 59.3 45 62.6 45 66 C44.34 66 43.68 66 43 66 C43 63.69 43 61.38 43 59 C39.87411891 59.68007182 39.87411891 59.68007182 38.7109375 62.15234375 C38.27007812 63.07144531 37.82921875 63.99054688 37.375 64.9375 C32.27863023 74.60302888 25.21497328 82.64437687 15 87 C11.375 87.375 11.375 87.375 9 87 C12.01969054 83.57768406 14.8594385 81.44141923 18.875 79.25 C24.33627964 76.10020086 27.53352563 72.19002866 31 67 C31.598125 66.154375 32.19625 65.30875 32.8125 64.4375 C37.11789243 55.60011554 37.6273571 43.67586266 35.3125 34.1796875 C34.37837824 31.94557962 33.32593213 30.02400854 32 28 C31.36384766 26.95972656 31.36384766 26.95972656 30.71484375 25.8984375 C27.46268795 21.06096899 23.7566964 18.17969854 18.7578125 15.2265625 C18.17773438 14.82179688 17.59765625 14.41703125 17 14 C17 13.34 17 12.68 17 12 C13.7 11.34 10.4 10.68 7 10 C7 9.34 7 8.68 7 8 C1.06 8 -4.88 8 -11 8 C-10.67 7.01 -10.34 6.02 -10 5 C-8.72125 4.9175 -7.4425 4.835 -6.125 4.75 C-3.94666582 4.54130069 -3.94666582 4.54130069 -2 4 C-0.4100567 2.07935207 -0.4100567 2.07935207 0 0 Z " fill="#15850A" transform="translate(51,32)"/>
<path d="M0 0 C3.3 0 6.6 0 10 0 C10 16.5 10 33 10 50 C6.7 50 3.4 50 0 50 C0 33.5 0 17 0 0 Z " fill="#0FBB3F" transform="translate(313,30)"/>
<path d="M0 0 C1.21236328 0.01353516 1.21236328 0.01353516 2.44921875 0.02734375 C3.37154297 0.04474609 3.37154297 0.04474609 4.3125 0.0625 C4.3125 0.3925 4.3125 0.7225 4.3125 1.0625 C1.6725 1.0625 -0.9675 1.0625 -3.6875 1.0625 C-3.1925 3.0425 -3.1925 3.0425 -2.6875 5.0625 C-3.491875 5.31 -4.29625 5.5575 -5.125 5.8125 C-13.62816801 8.74582233 -13.62816801 8.74582233 -20.6875 14.0625 C-21.3475 14.0625 -22.0075 14.0625 -22.6875 14.0625 C-22.935 14.619375 -23.1825 15.17625 -23.4375 15.75 C-24.6875 18.0625 -24.6875 18.0625 -26.625 20.375 C-32.78120841 28.39672611 -33.92683548 38.29396617 -34.6875 48.0625 C-35.6775 48.0625 -36.6675 48.0625 -37.6875 48.0625 C-38.15999231 34.12397673 -36.23254808 23.3880703 -26.6484375 12.8125 C-19.70785504 6.14954084 -9.87103145 -0.14305843 0 0 Z " fill="#288B1A" transform="translate(44.6875,35.9375)"/>
<path d="M0 0 C1.65 0 3.3 0 5 0 C5 1.98 5 3.96 5 6 C5.9590625 6.2165625 5.9590625 6.2165625 6.9375 6.4375 C9 7 9 7 10 8 C10.08631874 9.34267413 10.10706473 10.68974322 10.09765625 12.03515625 C10.09443359 12.84404297 10.09121094 13.65292969 10.08789062 14.48632812 C10.07951172 15.33646484 10.07113281 16.18660156 10.0625 17.0625 C10.05798828 17.91650391 10.05347656 18.77050781 10.04882812 19.65039062 C10.03700373 21.76695663 10.01906769 23.88348685 10 26 C6.7 26 3.4 26 0 26 C0 17.42 0 8.84 0 0 Z " fill="#838383" transform="translate(328,77)"/>
<path d="M0 0 C0.76441406 -0.00773437 1.52882813 -0.01546875 2.31640625 -0.0234375 C4.97801396 0.47653301 5.85931925 1.19325169 7.4375 3.375 C7.82317013 7.42453637 7.93988217 10.11904458 6.4375 13.875 C3.32696123 16.20790408 0.1245059 15.87712143 -3.5625 15.375 C-6.5625 14.375 -6.5625 14.375 -8.5625 13.375 C-8.67074843 11.7723218 -8.74820645 10.16754252 -8.8125 8.5625 C-8.85890625 7.66917969 -8.9053125 6.77585937 -8.953125 5.85546875 C-8.5625 3.375 -8.5625 3.375 -6.83203125 1.57421875 C-4.32894917 0.2515919 -2.81288671 -0.02855723 0 0 Z " fill="#F3FBF5" transform="translate(116.5625,39.625)"/>
<path d="M0 0 C0.76441406 -0.00773437 1.52882813 -0.01546875 2.31640625 -0.0234375 C4.97801396 0.47653301 5.85931925 1.19325169 7.4375 3.375 C7.82317013 7.42453637 7.93988217 10.11904458 6.4375 13.875 C3.32696123 16.20790408 0.1245059 15.87712143 -3.5625 15.375 C-6.5625 14.375 -6.5625 14.375 -8.5625 13.375 C-8.67074843 11.7723218 -8.74820645 10.16754252 -8.8125 8.5625 C-8.85890625 7.66917969 -8.9053125 6.77585937 -8.953125 5.85546875 C-8.5625 3.375 -8.5625 3.375 -6.83203125 1.57421875 C-4.32894917 0.2515919 -2.81288671 -0.02855723 0 0 Z " fill="#F3FBF5" transform="translate(95.5625,39.625)"/>
<path d="M0 0 C2.625 0.1875 2.625 0.1875 5.625 2.1875 C5.8125 5.8125 5.8125 5.8125 5.625 9.1875 C4.635 9.1875 3.645 9.1875 2.625 9.1875 C2.625 7.5375 2.625 5.8875 2.625 4.1875 C1.635 4.1875 0.645 4.1875 -0.375 4.1875 C-0.375 7.1575 -0.375 10.1275 -0.375 13.1875 C1.935 13.1875 4.245 13.1875 6.625 13.1875 C6.625 17.4775 6.625 21.7675 6.625 26.1875 C3.655 26.1875 0.685 26.1875 -2.375 26.1875 C-3.64637774 23.64474451 -3.504425 21.83941799 -3.5078125 18.99609375 C-3.50910156 17.96935547 -3.51039063 16.94261719 -3.51171875 15.88476562 C-3.50785156 14.80904297 -3.50398438 13.73332031 -3.5 12.625 C-3.50386719 11.54541016 -3.50773437 10.46582031 -3.51171875 9.35351562 C-3.51042969 8.32806641 -3.50914062 7.30261719 -3.5078125 6.24609375 C-3.50668457 5.30048584 -3.50555664 4.35487793 -3.50439453 3.38061523 C-3.32293374 0.30502603 -3.0769616 0.24291802 0 0 Z " fill="#030303" transform="translate(295.375,76.8125)"/>
<path d="M0 0 C0 5.94 0 11.88 0 18 C-3.3 18 -6.6 18 -10 18 C-10 11.73 -10 5.46 -10 -1 C-4 -2 -4 -2 0 0 Z " fill="#414141" transform="translate(241,85)"/>
<path d="M0 0 C2 2 2 2 2.125 5.625 C2.08375 6.73875 2.0425 7.8525 2 9 C1.01 9 0.02 9 -1 9 C-1 7.35 -1 5.7 -1 4 C-1.99 4 -2.98 4 -4 4 C-4 9.94 -4 15.88 -4 22 C-3.01 22 -2.02 22 -1 22 C-1 20.35 -1 18.7 -1 17 C0.32 17 1.64 17 3 17 C2.25 23.75 2.25 23.75 0 26 C-2.80151615 26.35916874 -4.34081106 26.49759022 -6.63525391 24.765625 C-8.37111839 22.51986974 -8.38656597 21.25501056 -8.3984375 18.4375 C-8.40230469 17.55835937 -8.40617188 16.67921875 -8.41015625 15.7734375 C-8.39855469 14.85820313 -8.38695312 13.94296875 -8.375 13 C-8.39240234 11.62714844 -8.39240234 11.62714844 -8.41015625 10.2265625 C-8.40628906 9.34742187 -8.40242187 8.46828125 -8.3984375 7.5625 C-8.39336182 6.35787109 -8.39336182 6.35787109 -8.38818359 5.12890625 C-7.51342622 0.33149475 -4.48109958 -0.57449995 0 0 Z " fill="#2C2C2C" transform="translate(197,77)"/>
<path d="M0 0 C3.0625 0.1875 3.0625 0.1875 5.0625 2.1875 C5.20757695 4.93235593 5.24902423 7.57230543 5.1875 10.3125 C5.17847656 11.06660156 5.16945313 11.82070312 5.16015625 12.59765625 C5.1365687 14.46107254 5.10069719 16.32432593 5.0625 18.1875 C1.6875 18.8125 1.6875 18.8125 -1.9375 19.1875 C-3.9375 17.1875 -3.9375 17.1875 -4.16796875 13.52734375 C-4.16397733 12.05983136 -4.14922158 10.59231791 -4.125 9.125 C-4.12435547 8.37927734 -4.12371094 7.63355469 -4.12304688 6.86523438 C-4.0690509 0.25972665 -4.0690509 0.25972665 0 0 Z " fill="#494949" transform="translate(318.9375,83.8125)"/>
<path d="M0 0 C3.0625 0.1875 3.0625 0.1875 5.0625 2.1875 C5.20757695 4.93235593 5.24902423 7.57230543 5.1875 10.3125 C5.17847656 11.06660156 5.16945312 11.82070312 5.16015625 12.59765625 C5.1365687 14.46107254 5.10069719 16.32432593 5.0625 18.1875 C2.7525 18.5175 0.4425 18.8475 -1.9375 19.1875 C-4.37679003 15.52856495 -4.20039673 12.78471667 -4.125 8.5625 C-4.12435547 7.86898437 -4.12371094 7.17546875 -4.12304688 6.4609375 C-4.06854376 0.25969428 -4.06854376 0.25969428 0 0 Z " fill="#575757" transform="translate(207.9375,83.8125)"/>
<path d="M0 0 C2.875 -0.125 2.875 -0.125 6 0 C8 2 8 2 8.1953125 5.9140625 C8.18200376 7.48449351 8.15813602 9.05486221 8.125 10.625 C8.11597656 11.42679688 8.10695313 12.22859375 8.09765625 13.0546875 C8.07406223 15.03658523 8.03819065 17.01832981 8 19 C1.9453125 19.1953125 1.9453125 19.1953125 0 19 C-2 17 -2 17 -2.375 14.125 C-2 11 -2 11 -0.125 8.625 C2 7 2 7 4 7 C4 5.68 4 4.36 4 3 C3.34 3 2.68 3 2 3 C2 3.66 2 4.32 2 5 C1.01 5 0.02 5 -1 5 C-0.67 3.35 -0.34 1.7 0 0 Z " fill="#000000" transform="translate(344,84)"/>
<path d="M0 0 C1.17755859 -0.01160156 1.17755859 -0.01160156 2.37890625 -0.0234375 C3.05824219 0.10804687 3.73757812 0.23953125 4.4375 0.375 C6.76499345 3.86624017 6.94049316 5.26722251 6.4375 9.375 C4.8125 11.75 4.8125 11.75 2.4375 13.375 C-1.2342087 13.98695145 -2.85063568 13.86206506 -5.9375 11.75 C-8.02629841 8.69714079 -8.10318562 7.00531776 -7.5625 3.375 C-5.32966928 0.3908709 -3.66037901 -0.03618167 0 0 Z " fill="#E9F8FF" transform="translate(242.5625,58.625)"/>
<path d="M0 0 C0.9178125 0.01353516 1.835625 0.02707031 2.78125 0.04101562 C5.02146803 0.07601903 7.26040594 0.12511131 9.5 0.1875 C9.5 0.5175 9.5 0.8475 9.5 1.1875 C7.69402344 1.26097656 7.69402344 1.26097656 5.8515625 1.3359375 C4.27601802 1.41096343 2.70049834 1.48651133 1.125 1.5625 C0.3309375 1.5934375 -0.463125 1.624375 -1.28125 1.65625 C-5.86667375 1.70566421 -5.86667375 1.70566421 -9.5 4.1875 C-11.02570335 4.81139356 -12.57063442 5.38890038 -14.125 5.9375 C-24.25294944 9.90124424 -32.46348466 17.18768326 -36.9375 27.1875 C-37.47337632 28.51485892 -38.00010799 29.84617486 -38.5 31.1875 C-39.16 31.1875 -39.82 31.1875 -40.5 31.1875 C-41.16 31.8475 -41.82 32.5075 -42.5 33.1875 C-42.00538075 23.78973425 -35.3094065 16.34913482 -28.79296875 10.16015625 C-20.04854682 2.63727196 -11.4409225 -0.32427033 0 0 Z " fill="#459A38" transform="translate(91.5,2.8125)"/>
<path d="M0 0 C0.99 0.66 1.98 1.32 3 2 C3.33419015 5.00771135 3.52770924 7.10056383 3 10 C0.79279774 12.71655663 -0.61118919 12.9444556 -4.0625 13.4375 C-7 13 -7 13 -8.875 11.4375 C-10.3704944 8.19726212 -10.20330402 5.52393641 -10 2 C-6.59677126 -0.09429461 -3.96047946 -0.33706208 0 0 Z " fill="#EFFAF2" transform="translate(290,59)"/>
<path d="M0 0 C2.9375 0.1875 2.9375 0.1875 3.9375 1.1875 C4.00929964 2.70678038 4.02142007 4.22917482 4 5.75 C3.99097656 6.57628906 3.98195312 7.40257813 3.97265625 8.25390625 C3.96105469 8.89199219 3.94945312 9.53007813 3.9375 10.1875 C2.2875 10.1875 0.6375 10.1875 -1.0625 10.1875 C-1.0625 11.8375 -1.0625 13.4875 -1.0625 15.1875 C-0.4025 15.1875 0.2575 15.1875 0.9375 15.1875 C1.2675 14.1975 1.5975 13.2075 1.9375 12.1875 C2.5975 12.1875 3.2575 12.1875 3.9375 12.1875 C3.980221 13.85361905 3.97813832 15.52132885 3.9375 17.1875 C2.9375 18.1875 2.9375 18.1875 -0.5625 18.3125 C-4.0625 18.1875 -4.0625 18.1875 -5.0625 17.1875 C-5.18903198 14.69511431 -5.24769825 12.24279559 -5.25 9.75 C-5.26224609 9.05583984 -5.27449219 8.36167969 -5.28710938 7.64648438 C-5.29239842 5.82529099 -5.18419207 4.0046308 -5.0625 2.1875 C-3.0625 0.1875 -3.0625 0.1875 0 0 Z " fill="#1D1D1D" transform="translate(250.0625,83.8125)"/>
<path d="M0 0 C1 1 1 1 1.0625 3.5625 C1.041875 4.366875 1.02125 5.17125 1 6 C0.01 6 -0.98 6 -2 6 C-2 5.01 -2 4.02 -2 3 C-2.66 3 -3.32 3 -4 3 C-4 6.96 -4 10.92 -4 15 C-3.34 15 -2.68 15 -2 15 C-2 14.01 -2 13.02 -2 12 C-1.01 12 -0.02 12 1 12 C1.125 14.375 1.125 14.375 1 17 C-1 19 -1 19 -4.0625 19.1875 C-7 19 -7 19 -8 18 C-8.07325168 15.13732433 -8.09238205 12.299281 -8.0625 9.4375 C-8.05798828 8.63119141 -8.05347656 7.82488281 -8.04882812 6.99414062 C-8.03700518 4.99606244 -8.01906914 2.99802217 -8 1 C-5.26752652 -0.36623674 -3.01801098 -0.128426 0 0 Z " fill="#4A4A4A" transform="translate(267,84)"/>
<path d="M0 0 C1.32 0.33 2.64 0.66 4 1 C4 1.66 4 2.32 4 3 C4.73347656 3.25007812 5.46695313 3.50015625 6.22265625 3.7578125 C15.44478731 7.88247871 20.26080838 17.10606565 24 26 C24.96088383 28.88265149 25.11670941 30.67662271 25.09765625 33.66796875 C25.09443359 34.56064453 25.09121094 35.45332031 25.08789062 36.37304688 C25.07951172 37.30181641 25.07113281 38.23058594 25.0625 39.1875 C25.05798828 40.12787109 25.05347656 41.06824219 25.04882812 42.03710938 C25.03704626 44.35813712 25.02059558 46.67903644 25 49 C24.67 49 24.34 49 24 49 C23.95101562 47.70964844 23.90203125 46.41929688 23.8515625 45.08984375 C23.77648197 43.37237653 23.70093646 41.65492959 23.625 39.9375 C23.5940625 39.08994141 23.563125 38.24238281 23.53125 37.36914062 C23.29468217 32.26321829 22.61955494 27.85208127 21 23 C20.34 23 19.68 23 19 23 C17.94536722 21.53789546 16.95712311 20.02771573 16 18.5 C11.91489943 12.45405115 6.5875376 7.2937688 0 4 C0 2.68 0 1.36 0 0 Z " fill="#4C9D3F" transform="translate(111,7)"/>
<path d="M0 0 C1.65 0 3.3 0 5 0 C6.00109515 3.31070838 6.10356134 6.30084769 6.0625 9.75 C6.05347656 10.73484375 6.04445313 11.7196875 6.03515625 12.734375 C6.02355469 13.48203125 6.01195312 14.2296875 6 15 C5.34 15 4.68 15 4 15 C4 16.98 4 18.96 4 21 C4.99 21 5.98 21 7 21 C7 21.99 7 22.98 7 24 C5.35 24 3.7 24 2 24 C0.49843126 20.99686252 0.90718796 18.20932478 0.9375 14.875 C0.94652344 13.59367187 0.95554687 12.31234375 0.96484375 10.9921875 C0.97644531 10.00476563 0.98804688 9.01734375 1 8 C0.34 8 -0.32 8 -1 8 C-0.67 5.36 -0.34 2.72 0 0 Z " fill="#092F14" transform="translate(273,79)"/>
<path d="M0 0 C7.42857143 -0.28571429 7.42857143 -0.28571429 11 2 C11 4.64 11 7.28 11 10 C7.57067929 11.71466036 3.78283935 11.05404056 0 11 C0 7.37 0 3.74 0 0 Z " fill="#EEF9FF" transform="translate(157,42)"/>
<path d="M0 0 C0.33 0 0.66 0 1 0 C1 14.19 1 28.38 1 43 C2.32 43.33 3.64 43.66 5 44 C5 45.65 5 47.3 5 49 C4.67 47.68 4.34 46.36 4 45 C2.68 45 1.36 45 0 45 C-0.33 46.32 -0.66 47.64 -1 49 C-1 47.68 -1 46.36 -1 45 C-1.99 45 -2.98 45 -4 45 C-4 45.99 -4 46.98 -4 48 C-4.66 48 -5.32 48 -6 48 C-6 44.04 -6 40.08 -6 36 C-5.34 36 -4.68 36 -4 36 C-4 36.99 -4 37.98 -4 39 C-3.01 39 -2.02 39 -1 39 C-0.67 26.13 -0.34 13.26 0 0 Z " fill="#A1D6B0" transform="translate(269,51)"/>
<path d="M0 0 C1.32 0 2.64 0 4 0 C4 8.58 4 17.16 4 26 C2.68 26 1.36 26 0 26 C0 18.41 0 10.82 0 3 C-0.99 2.67 -1.98 2.34 -3 2 C-2.01 2 -1.02 2 0 2 C0 1.34 0 0.68 0 0 Z " fill="#606862" transform="translate(356,77)"/>
<path d="M0 0 C0.66 0 1.32 0 2 0 C3.10087193 7.01805857 3.09733092 13.90565767 3 21 C3.99 21 4.98 21 6 21 C6 16.38 6 11.76 6 7 C6.66 7.33 7.32 7.66 8 8 C8 13.28 8 18.56 8 24 C5.36 24 2.72 24 0 24 C0 16.08 0 8.16 0 0 Z " fill="#171717" transform="translate(329,78)"/>
<path d="M0 0 C1.32 0 2.64 0 4 0 C4 8.58 4 17.16 4 26 C2.68 26 1.36 26 0 26 C0 17.42 0 8.84 0 0 Z " fill="#363636" transform="translate(306,77)"/>
<path d="M0 0 C2.64 0 5.28 0 8 0 C8 5.94 8 11.88 8 18 C7.34 18 6.68 18 6 18 C6 13.05 6 8.1 6 3 C5.01 3 4.02 3 3 3 C3 7.95 3 12.9 3 18 C2.01 18 1.02 18 0 18 C0 12.06 0 6.12 0 0 Z " fill="#060606" transform="translate(218,84)"/>
<path d="M0 0 C0.33 2.97 0.66 5.94 1 9 C1.78375 7.845 2.5675 6.69 3.375 5.5 C4.7109375 3.53125 4.7109375 3.53125 6 2 C6.66 2 7.32 2 8 2 C7.46465288 6.50515188 5.74051417 9.19500166 3.0625 12.8125 C2.35222656 13.78832031 1.64195313 14.76414062 0.91015625 15.76953125 C0.27980469 16.50558594 -0.35054688 17.24164063 -1 18 C-1.66 18 -2.32 18 -3 18 C-3 12.39 -3 6.78 -3 1 C-1 0 -1 0 0 0 Z " fill="#1A7F07" transform="translate(97,102)"/>
<path d="M0 0 C0.33 0 0.66 0 1 0 C1 2.97 1 5.94 1 9 C3.31 9 5.62 9 8 9 C8 13.29 8 17.58 8 22 C5.03 22 2.06 22 -1 22 C-1 21.67 -1 21.34 -1 21 C1.31 21 3.62 21 6 21 C6 17.37 6 13.74 6 10 C5.01 10 4.02 10 3 10 C3.33 10.66 3.66 11.32 4 12 C4.039992 13.99960012 4.04346799 16.00047242 4 18 C2.68 18 1.36 18 0 18 C0 12.06 0 6.12 0 0 Z " fill="#595959" transform="translate(294,81)"/>
<path d="M0 0 C1.21236328 0.01353516 1.21236328 0.01353516 2.44921875 0.02734375 C3.37154297 0.04474609 3.37154297 0.04474609 4.3125 0.0625 C4.3125 0.3925 4.3125 0.7225 4.3125 1.0625 C1.6725 1.0625 -0.9675 1.0625 -3.6875 1.0625 C-3.3575 2.3825 -3.0275 3.7025 -2.6875 5.0625 C-3.491875 5.31 -4.29625 5.5575 -5.125 5.8125 C-10.12148177 7.5656515 -14.95119632 9.69434816 -19.6875 12.0625 C-19.3125 9.375 -19.3125 9.375 -17.6875 6.0625 C-12.2737007 2.51585158 -6.51408814 -0.09440707 0 0 Z " fill="#3F9631" transform="translate(44.6875,35.9375)"/>
<path d="M0 0 C0.66 0 1.32 0 2 0 C5.23646192 6.13044109 5.45645513 11.38966814 5.375 18.25 C5.38660156 19.24257813 5.39820313 20.23515625 5.41015625 21.2578125 C5.40628906 22.20914063 5.40242187 23.16046875 5.3984375 24.140625 C5.39505371 25.00204102 5.39166992 25.86345703 5.38818359 26.75097656 C4.92567521 29.43061635 4.07860792 30.31427031 2 32 C2.01047363 31.38592285 2.02094727 30.7718457 2.03173828 30.13916016 C2.07384209 27.30115003 2.09949622 24.46320599 2.125 21.625 C2.14175781 20.65949219 2.15851563 19.69398437 2.17578125 18.69921875 C2.21924836 12.22261957 1.53232671 6.293423 0 0 Z " fill="#11870A" transform="translate(130,30)"/>
<path d="M0 0 C0.66 0 1.32 0 2 0 C1.48725672 5.1992169 -1.15299853 8.99816623 -3.875 13.3125 C-4.32230469 14.05306641 -4.76960938 14.79363281 -5.23046875 15.55664062 C-5.66746094 16.25595703 -6.10445313 16.95527344 -6.5546875 17.67578125 C-6.95155762 18.31427002 -7.34842773 18.95275879 -7.75732422 19.6105957 C-8.37244873 20.29835083 -8.37244873 20.29835083 -9 21 C-9.99 21 -10.98 21 -12 21 C-11.10514414 16.72949397 -8.94525288 13.52840927 -6.5625 9.9375 C-6.15451172 9.31294922 -5.74652344 8.68839844 -5.32617188 8.04492188 C-3.56540326 5.35350231 -1.78402869 2.67604303 0 0 Z " fill="#1D8912" transform="translate(130,63)"/>
<path d="M0 0 C1.43655854 -0.08131463 2.8744483 -0.13933559 4.3125 -0.1875 C5.51326172 -0.23970703 5.51326172 -0.23970703 6.73828125 -0.29296875 C9 0 9 0 10.78125 1.28125 C12.73204891 4.03237667 12.18445865 6.74123057 12 10 C9.00745382 8.59808647 6.4045389 6.96632511 3.75 5 C3.04359375 4.484375 2.3371875 3.96875 1.609375 3.4375 C0.81273438 2.7259375 0.81273438 2.7259375 0 2 C0 1.34 0 0.68 0 0 Z " fill="#D6EEDA" transform="translate(70,40)"/>
<path d="M0 0 C0.9178125 0.01353516 1.835625 0.02707031 2.78125 0.04101562 C5.02146803 0.07601903 7.26040594 0.12511131 9.5 0.1875 C9.5 0.5175 9.5 0.8475 9.5 1.1875 C7.69402344 1.26097656 7.69402344 1.26097656 5.8515625 1.3359375 C4.27601802 1.41096343 2.70049834 1.48651133 1.125 1.5625 C0.3309375 1.5934375 -0.463125 1.624375 -1.28125 1.65625 C-5.86667375 1.70566421 -5.86667375 1.70566421 -9.5 4.1875 C-11.12377932 4.92558151 -12.77361703 5.60741377 -14.4375 6.25 C-15.75041016 6.76240234 -15.75041016 6.76240234 -17.08984375 7.28515625 C-18.88010907 7.95541766 -20.68647574 8.58299191 -22.5 9.1875 C-23.16 8.5275 -23.82 7.8675 -24.5 7.1875 C-16.53087716 1.40988594 -9.73221247 -0.27584032 0 0 Z " fill="#4B9C3D" transform="translate(91.5,2.8125)"/>
<path d="M0 0 C10 0 10 0 13 2 C11.02 2.99 11.02 2.99 9 4 C9 3.01 9 2.02 9 1 C6.36 1 3.72 1 1 1 C1 15.19 1 29.38 1 44 C0.67 44 0.34 44 0 44 C0 29.48 0 14.96 0 0 Z " fill="#1FBF4C" transform="translate(270,50)"/>
<path d="M0 0 C0.33 0 0.66 0 1 0 C0.67 5.61 0.34 11.22 0 17 C1.32 17 2.64 17 4 17 C4 18.65 4 20.3 4 22 C3.34 22 2.68 22 2 22 C2.66 24.97 3.32 27.94 4 31 C2 30 2 30 1.1484375 28.0234375 C-1.39426631 19.31660323 -2.75084435 8.85150722 0 0 Z " fill="#65AA59" transform="translate(7,67)"/>
<path d="M0 0 C0.66 0 1.32 0 2 0 C1.44011356 4.19914831 0.04944839 6.85996274 -2.375 10.3125 C-2.98085937 11.19550781 -3.58671875 12.07851562 -4.2109375 12.98828125 C-4.80132812 13.65214844 -5.39171875 14.31601563 -6 15 C-6.99 15 -7.98 15 -9 15 C-7.61624869 11.16009012 -5.83690651 8.02947436 -3.5 4.6875 C-2.8915625 3.80449219 -2.283125 2.92148438 -1.65625 2.01171875 C-1.1096875 1.34785156 -0.563125 0.68398437 0 0 Z " fill="#19880F" transform="translate(115,86)"/>
<path d="M0 0 C0.99 0 1.98 0 3 0 C3 8.25 3 16.5 3 25 C2.34 25 1.68 25 1 25 C0.67 16.75 0.34 8.5 0 0 Z " fill="#000602" transform="translate(356,77)"/>
<path d="M0 0 C2.875 -0.125 2.875 -0.125 6 0 C8 2 8 2 8.1953125 5.9140625 C8.18200376 7.48449351 8.15813602 9.05486221 8.125 10.625 C8.11597656 11.42679688 8.10695313 12.22859375 8.09765625 13.0546875 C8.07406223 15.03658523 8.03819065 17.01832981 8 19 C6.02 19 4.04 19 2 19 C2 18.67 2 18.34 2 18 C3.65 18 5.3 18 7 18 C6.67 13.05 6.34 8.1 6 3 C5.34 4.32 4.68 5.64 4 7 C4 5.68 4 4.36 4 3 C3.34 3 2.68 3 2 3 C2 3.66 2 4.32 2 5 C1.01 5 0.02 5 -1 5 C-0.67 3.35 -0.34 1.7 0 0 Z " fill="#4C4C4C" transform="translate(344,84)"/>
<path d="M0 0 C3.41659491 -0.05816623 6.83306205 -0.09365195 10.25 -0.125 C11.21808594 -0.14175781 12.18617187 -0.15851563 13.18359375 -0.17578125 C14.11816406 -0.18222656 15.05273438 -0.18867187 16.015625 -0.1953125 C16.87446289 -0.20578613 17.73330078 -0.21625977 18.61816406 -0.22705078 C21.17903596 0.01706677 22.79511029 0.71009488 25 2 C25 2.66 25 3.32 25 4 C24.36449219 3.84402344 23.72898437 3.68804687 23.07421875 3.52734375 C18.1943045 2.69025554 13.27276126 2.64186327 8.33007812 2.48242188 C2.21570434 2.21570434 2.21570434 2.21570434 0 0 Z " fill="#16860C" transform="translate(82,4)"/>
<path d="M0 0 C1.98 0 3.96 0 6 0 C6 1.32 6 2.64 6 4 C7.65 4 9.3 4 11 4 C11 5.65 11 7.3 11 9 C10.67 7.68 10.34 6.36 10 5 C8.68 5 7.36 5 6 5 C5.67 6.32 5.34 7.64 5 9 C5 7.68 5 6.36 5 5 C4.01 5 3.02 5 2 5 C2 5.99 2 6.98 2 8 C1.34 8 0.68 8 0 8 C0 5.36 0 2.72 0 0 Z " fill="#BDC0BD" transform="translate(263,91)"/>
<path d="M0 0 C0.33 0 0.66 0 1 0 C0.67 5.94 0.34 11.88 0 18 C-0.99 18 -1.98 18 -3 18 C-3.31985731 11.28299653 -2.4793824 6.24273068 0 0 Z " fill="#188006" transform="translate(10,66)"/>
<path d="M0 0 C3.71599191 -0.20086443 4.77208445 -0.1519437 8 2 C8.1875 5.625 8.1875 5.625 8 9 C7.01 9 6.02 9 5 9 C5 7.35 5 5.7 5 4 C3.02 4.33 1.04 4.66 -1 5 C-0.67 3.35 -0.34 1.7 0 0 Z " fill="#0D1A11" transform="translate(293,77)"/>
<path d="M0 0 C3.125 0.25 3.125 0.25 5 1.625 C6.125 3.25 6.125 3.25 6.125 5.25 C2.495 5.25 -1.135 5.25 -4.875 5.25 C-3.64166667 0.31666667 -3.64166667 0.31666667 0 0 Z " fill="#CBEFFF" transform="translate(201.875,55.75)"/>
<path d="M0 0 C0.33 0 0.66 0 1 0 C1.33 2.97 1.66 5.94 2 9 C2.78375 7.845 3.5675 6.69 4.375 5.5 C5.7109375 3.53125 5.7109375 3.53125 7 2 C7.66 2 8.32 2 9 2 C8.46884894 6.51478398 6.63379708 9.34666857 4 13 C3.67 12.34 3.34 11.68 3 11 C2.01 11 1.02 11 0 11 C0 7.37 0 3.74 0 0 Z " fill="#178D13" transform="translate(96,102)"/>
<path d="M0 0 C3.0625 0.1875 3.0625 0.1875 5.0625 2.1875 C5.0625 3.1775 5.0625 4.1675 5.0625 5.1875 C1.7625 5.1875 -1.5375 5.1875 -4.9375 5.1875 C-3.69966216 0.23614865 -3.69966216 0.23614865 0 0 Z " fill="#D0F1D9" transform="translate(347.9375,55.8125)"/>
<path d="M0 0 C0.66 0.33 1.32 0.66 2 1 C2 6.28 2 11.56 2 17 C0.02 17 -1.96 17 -4 17 C-3.505 15.515 -3.505 15.515 -3 14 C-2.01 14 -1.02 14 0 14 C0 9.38 0 4.76 0 0 Z " fill="#090909" transform="translate(335,85)"/>
<path d="M0 0 C2 1 2 1 3 2 C3.04080783 3.99958364 3.04254356 6.00045254 3 8 C1.68 8 0.36 8 -1 8 C-1.33 7.34 -1.66 6.68 -2 6 C-2.66 7.32 -3.32 8.64 -4 10 C-4.25 7.25 -4.25 7.25 -4 4 C-2 1.625 -2 1.625 0 0 Z " fill="#5D5D5D" transform="translate(346,91)"/>
<path d="M0 0 C0.94875 0.04125 1.8975 0.0825 2.875 0.125 C2.215 0.785 1.555 1.445 0.875 2.125 C0.70812552 4.70854218 0.70812552 4.70854218 0.875 7.125 C-0.115 7.125 -1.105 7.125 -2.125 7.125 C-2.455 5.805 -2.785 4.485 -3.125 3.125 C-3.125 8.075 -3.125 13.025 -3.125 18.125 C-3.785 17.795 -4.445 17.465 -5.125 17.125 C-5.17883848 14.66637599 -5.21859038 12.2089245 -5.25 9.75 C-5.26675781 9.05132812 -5.28351563 8.35265625 -5.30078125 7.6328125 C-5.31844267 5.79602514 -5.22803261 3.95898037 -5.125 2.125 C-3.125 0.125 -3.125 0.125 0 0 Z " fill="#7A7A7A" transform="translate(250.125,83.875)"/>
<path d="M0 0 C0.33 0 0.66 0 1 0 C1.02684679 2.64590014 1.04676357 5.29153096 1.0625 7.9375 C1.07087891 8.69224609 1.07925781 9.44699219 1.08789062 10.22460938 C1.09652441 12.14994313 1.05224333 14.07535581 1 16 C0 17 0 17 -3.5625 17.0625 C-4.696875 17.041875 -5.83125 17.02125 -7 17 C-7 16.67 -7 16.34 -7 16 C-5.02 15.67 -3.04 15.34 -1 15 C-0.67 13.35 -0.34 11.7 0 10 C-0.45375 10.495 -0.9075 10.99 -1.375 11.5 C-3 13 -3 13 -5 13 C-5 11.35 -5 9.7 -5 8 C-3.35 8 -1.7 8 0 8 C0 5.36 0 2.72 0 0 Z " fill="#A9A9A9" transform="translate(254,86)"/>
<path d="M0 0 C0 2 0 2 -1.64453125 3.65625 C-2.35996094 4.2646875 -3.07539062 4.873125 -3.8125 5.5 C-4.87404297 6.41265625 -4.87404297 6.41265625 -5.95703125 7.34375 C-8 9 -8 9 -11 11 C-9.38688629 4.69419186 -6.97004455 0 0 0 Z " fill="#288C1B" transform="translate(69,11)"/>
<path d="M0 0 C0.66 0 1.32 0 2 0 C2.06058594 1.05960937 2.12117188 2.11921875 2.18359375 3.2109375 C2.26800127 4.59897221 2.35264917 5.98699232 2.4375 7.375 C2.47681641 8.07367188 2.51613281 8.77234375 2.55664062 9.4921875 C2.74280134 13.37360492 2.74280134 13.37360492 4 17 C2.68 16.67 1.36 16.34 0 16 C0 10.72 0 5.44 0 0 Z " fill="#030303" transform="translate(260,85)"/>
<path d="M0 0 C1.98 0 3.96 0 6 0 C5.01 0.66 4.02 1.32 3 2 C2.41407366 5.11610554 2.41407366 5.11610554 2.3125 8.625 C2.24675781 9.81351563 2.18101562 11.00203125 2.11328125 12.2265625 C2.07589844 13.14179687 2.03851563 14.05703125 2 15 C1.34 15 0.68 15 0 15 C0 10.05 0 5.1 0 0 Z " fill="#151515" transform="translate(204,85)"/>
<path d="M0 0 C1.32 0.33 2.64 0.66 4 1 C4 1.66 4 2.32 4 3 C6.475 3.99 6.475 3.99 9 5 C9 6.32 9 7.64 9 9 C7.65686601 8.35330586 6.32608822 7.68096422 5 7 C4.0925 6.54625 3.185 6.0925 2.25 5.625 C1.5075 5.08875 0.765 4.5525 0 4 C0 2.68 0 1.36 0 0 Z " fill="#29901F" transform="translate(111,7)"/>
<path d="M0 0 C-0.721875 0.556875 -1.44375 1.11375 -2.1875 1.6875 C-4.97457299 3.97909334 -7.48641528 6.41459857 -10 9 C-10.25 6.1875 -10.25 6.1875 -10 3 C-7.05843777 -0.39411027 -4.30855278 -0.29376496 0 0 Z " fill="#0F880A" transform="translate(24,63)"/>
<path d="M0 0 C2.64 0 5.28 0 8 0 C7.67 0.66 7.34 1.32 7 2 C4.9375 2.625 4.9375 2.625 3 3 C3 2.34 3 1.68 3 1 C2.34 1 1.68 1 1 1 C1 6.61 1 12.22 1 18 C0.67 18 0.34 18 0 18 C0 12.06 0 6.12 0 0 Z " fill="#252525" transform="translate(218,84)"/>
<path d="M0 0 C0.66 0.33 1.32 0.66 2 1 C1.27683594 1.58394531 1.27683594 1.58394531 0.5390625 2.1796875 C-4.82153005 6.92764091 -6.30376355 10.93817318 -7 18 C-7.33 18 -7.66 18 -8 18 C-8.37964752 13.25440599 -8.48228172 9.93011475 -6.25 5.625 C-4.28465887 3.33210202 -2.52921053 1.62592106 0 0 Z " fill="#4CC8FF" transform="translate(194,51)"/>
<path d="M0 0 C1.67542976 0.28604898 3.34385343 0.61781233 5 1 C5 3.31 5 5.62 5 8 C4.01 8 3.02 8 2 8 C2 6.02 2 4.04 2 2 C1.01 1.67 0.02 1.34 -1 1 C-0.67 0.67 -0.34 0.34 0 0 Z " fill="#11181B" transform="translate(194,78)"/>
<path d="M0 0 C0.33 0.99 0.66 1.98 1 3 C1.66 3 2.32 3 3 3 C3 5.64 3 8.28 3 11 C2.01 10.67 1.02 10.34 0 10 C0 6.7 0 3.4 0 0 Z " fill="#018F29" transform="translate(271,84)"/>
<path d="M0 0 C-1.55603771 3.81936528 -3.95604931 6.26044438 -7 9 C-7.66 9 -8.32 9 -9 9 C-7.45665977 5.21180126 -4.44676575 0 0 0 Z " fill="#499938" transform="translate(24,45)"/>
<path d="M0 0 C2.0245738 1.93254772 3.42105792 3.63158688 5 6 C5 7.32 5 8.64 5 10 C4.34 10 3.68 10 3 10 C0.4606772 6.58168085 -0.3636198 4.24223102 0 0 Z " fill="#3F9530" transform="translate(127,20)"/>
<path d="M0 0 C0.33 0.99 0.66 1.98 1 3 C-1.31 5.31 -3.62 7.62 -6 10 C-6.33 9.01 -6.66 8.02 -7 7 C-4.69 4.69 -2.38 2.38 0 0 Z " fill="#268512" transform="translate(81,104)"/>
<path d="M0 0 C0.33 0.99 0.66 1.98 1 3 C1.99 3 2.98 3 4 3 C4.33 3.99 4.66 4.98 5 6 C3.34385343 6.38218767 1.67542976 6.71395102 0 7 C-1 6 -1 6 -1.125 3.5 C-1 1 -1 1 0 0 Z " fill="#171717" transform="translate(344,96)"/>
<path d="M0 0 C1.65 0 3.3 0 5 0 C5 2.64 5 5.28 5 8 C3.35 8 1.7 8 0 8 C0.99 7.67 1.98 7.34 3 7 C2.42547254 3.06924356 2.42547254 3.06924356 0 0 Z " fill="#070707" transform="translate(249,85)"/>
<path d="M0 0 C2 1.75 2 1.75 4 4 C4 5.32 4 6.64 4 8 C3.01 8 2.02 8 1 8 C0.34 7.34 -0.32 6.68 -1 6 C-0.625 2.875 -0.625 2.875 0 0 Z " fill="#08A222" transform="translate(12,66)"/>
<path d="M0 0 C0.99 0 1.98 0 3 0 C3 1.65 3 3.3 3 5 C1.68 5.33 0.36 5.66 -1 6 C-1.33 5.34 -1.66 4.68 -2 4 C-1.34 4 -0.68 4 0 4 C0 2.68 0 1.36 0 0 Z " fill="#1C1C1C" transform="translate(265,96)"/>
<path d="M0 0 C0.99 0 1.98 0 3 0 C3 1.98 3 3.96 3 6 C2.01 6.33 1.02 6.66 0 7 C0 4.69 0 2.38 0 0 Z " fill="#ACACAC" transform="translate(295,93)"/>
<path d="M0 0 C1.65 0 3.3 0 5 0 C5 1.32 5 2.64 5 4 C3.35 4 1.7 4 0 4 C0 2.68 0 1.36 0 0 Z " fill="#FFFFFF" transform="translate(264,91)"/>
<path d="M0 0 C0.66 0 1.32 0 2 0 C1.67 0.99 1.34 1.98 1 3 C0.34 3 -0.32 3 -1 3 C-0.855625 4.27875 -0.71125 5.5575 -0.5625 6.875 C-0.48128906 7.59429687 -0.40007812 8.31359375 -0.31640625 9.0546875 C-0.08707039 11.07404316 -0.08707039 11.07404316 1 13 C0.01 12.67 -0.98 12.34 -2 12 C-2.05395478 10.37536158 -2.09277195 8.75021459 -2.125 7.125 C-2.14820312 6.22007813 -2.17140625 5.31515625 -2.1953125 4.3828125 C-2 2 -2 2 0 0 Z " fill="#A2E4B4" transform="translate(110,41)"/>
<path d="M0 0 C0.66 0 1.32 0 2 0 C1.67 0.99 1.34 1.98 1 3 C0.34 3 -0.32 3 -1 3 C-0.855625 4.27875 -0.71125 5.5575 -0.5625 6.875 C-0.48128906 7.59429687 -0.40007812 8.31359375 -0.31640625 9.0546875 C-0.08707039 11.07404316 -0.08707039 11.07404316 1 13 C0.01 12.67 -0.98 12.34 -2 12 C-2.05395478 10.37536158 -2.09277195 8.75021459 -2.125 7.125 C-2.14820312 6.22007813 -2.17140625 5.31515625 -2.1953125 4.3828125 C-2 2 -2 2 0 0 Z " fill="#A0E3B2" transform="translate(89,41)"/>
<path d="M0 0 C1.2065625 0.0309375 1.2065625 0.0309375 2.4375 0.0625 C1.4475 0.7225 0.4575 1.3825 -0.5625 2.0625 C0.0975 2.7225 0.7575 3.3825 1.4375 4.0625 C-0.5425 4.3925 -2.5225 4.7225 -4.5625 5.0625 C-3.43829114 0.08386076 -3.43829114 0.08386076 0 0 Z " fill="#16272E" transform="translate(194.5625,76.9375)"/>
<path d="M0 0 C0.99 0.33 1.98 0.66 3 1 C2.625 3.9375 2.625 3.9375 2 7 C1.01 7.495 1.01 7.495 0 8 C0 5.36 0 2.72 0 0 Z " fill="#1D8A13" transform="translate(132,54)"/>
<path d="M0 0 C1.60379341 -0.05416188 3.20811406 -0.09286638 4.8125 -0.125 C5.70582031 -0.14820313 6.59914063 -0.17140625 7.51953125 -0.1953125 C10 0 10 0 13 2 C11.02 2.99 11.02 2.99 9 4 C9 3.01 9 2.02 9 1 C6.03 1 3.06 1 0 1 C0 0.67 0 0.34 0 0 Z " fill="#86DC9E" transform="translate(270,50)"/>
<path d="M0 0 C0.66 0 1.32 0 2 0 C2 1.65 2 3.3 2 5 C1.01 5 0.02 5 -1 5 C-1.66 4.34 -2.32 3.68 -3 3 C-2.34 3 -1.68 3 -1 3 C-0.67 2.01 -0.34 1.02 0 0 Z " fill="#2C2C2C" transform="translate(252,96)"/>
</svg>
