<svg xmlns="http://www.w3.org/2000/svg" xmlns:xlink="http://www.w3.org/1999/xlink" xmlns:inkscape="http://www.inkscape.org/namespaces/inkscape" version="1.1" width="375" height="375" viewBox="0 0 375 375">
<defs>
<clipPath id="clip_0">
<path transform="matrix(.24,0,0,.24,0,0)" d="M0 0H1562.5V1562.5H0Z" clip-rule="evenodd"/>
</clipPath>
<clipPath id="clip_1">
<path transform="matrix(.24,0,0,.24,0,0)" d="M0 0H1562.5V1562.5H0Z" clip-rule="evenodd"/>
</clipPath>
<clipPath id="clip_2">
<path transform="matrix(.24,0,0,.24,0,0)" d="M128.16449 454.90299H634.4145V961.15298H128.16449Z" clip-rule="evenodd"/>
</clipPath>
<clipPath id="clip_3">
<path transform="matrix(.24,0,0,.24,0,0)" d="M197.05635 525.834H565.80636V894.584H197.05635Z" clip-rule="evenodd"/>
</clipPath>
<clipPath id="clip_4">
<path transform="matrix(.24,0,0,.24,0,0)" d="M393.89723 818.9574H520.0208V1015.54696H393.89723Z" clip-rule="evenodd"/>
</clipPath>
<clipPath id="clip_5">
<path transform="matrix(.24,0,0,.24,0,0)" d="M0 0H1562.5V1562.5H0Z" clip-rule="evenodd"/>
</clipPath>
<path id="font_6_419" d="M.13769531-.0043945314C.12044271-.0043945314 .10522461-.0008951823 .092041019 .0061035158 .07885742 .013102214 .06876627 .022786459 .061767579 .03515625 .05476888 .047526044 .05126953 .061523439 .05126953 .07714844 .05126953 .09277344 .05476888 .106770839 .061767579 .119140628 .06876627 .13151042 .07885742 .14127605 .092041019 .1484375 .10522461 .15559896 .12044271 .15917969 .13769531 .15917969 .15527344 .15917969 .1706543 .15568035 .18383789 .14868164 .19702149 .14168294 .20711263 .1319987 .21411133 .119628909 .22111003 .10725912 .22460938 .09326172 .22460938 .07763672 .22460938 .0538737 .2167155 .034261068 .20092774 .018798829 .18513997 .0033365887 .1640625-.0043945314 .13769531-.0043945314Z"/>
<clipPath id="clip_7">
<path transform="matrix(.24,0,0,.24,0,0)" d="M39.18025 673.20339H382.93025V1016.95339H39.18025Z" clip-rule="evenodd"/>
</clipPath>
<clipPath id="clip_8">
<path transform="matrix(.24,0,0,.24,0,0)" d="M24.62065 665.9236H380.87065V1022.1736H24.62065Z" clip-rule="evenodd"/>
</clipPath>
<clipPath id="clip_9">
<path transform="matrix(.24,0,0,.24,0,0)" d="M39.18025 761.6312H139.18025V861.6312H39.18025Z" clip-rule="evenodd"/>
</clipPath>
<clipPath id="clip_10">
<path transform="matrix(.24,0,0,.24,0,0)" d="M39.18025 761.6312H173.55525V896.0062H39.18025Z" clip-rule="evenodd"/>
</clipPath>
<clipPath id="clip_11">
<path transform="matrix(.24,0,0,.24,0,0)" d="M0 0H1562.5V1562.5H0Z" clip-rule="evenodd"/>
</clipPath>
<clipPath id="clip_12">
<path transform="matrix(.24,0,0,.24,0,0)" d="M0 0H1562.5V1562.5H0Z"/>
</clipPath>
<clipPath id="clip_13">
<path transform="matrix(.24,0,0,.24,0,0)" d="M0 0H1562.5V1562.5H0Z"/>
</clipPath>
<clipPath id="clip_14">
<path transform="matrix(.24,0,0,.24,0,0)" d="M389.77934 1019.2626 522.9371 818.95669 755.4912 973.5521 622.3335 1173.858 389.77934 1019.2626Z"/>
</clipPath>
<clipPath id="clip_15">
<path transform="matrix(.24,0,0,.24,0,0)" d="M0 0H1562.5V1562.5H0Z" clip-rule="evenodd"/>
</clipPath>
<clipPath id="clip_16">
<path transform="matrix(.24,0,0,.24,0,0)" d="M387.49186 773.7535H425.03425V882.6466H387.49186Z" clip-rule="evenodd"/>
</clipPath>
<clipPath id="clip_17">
<path transform="matrix(.24,0,0,.24,0,0)" d="M0 0H1562.5V1562.5H0Z" clip-rule="evenodd"/>
</clipPath>
<path id="font_18_51" d="M.059570314 .8258667H.3605652C.44456993 .8258667 .51257327 .804189 .5645752 .76083377 .61657717 .71747848 .6425781 .65444949 .6425781 .5717468 .6425781 .4890442 .616272 .42418418 .56365969 .37716676 .51104739 .33014933 .44345094 .30664063 .36087037 .30664063H.2480011V.00048828127H.059570314V.8258667M.2480011 .45674134H.3008728C.3427938 .45674134 .3772227 .46524049 .40415956 .48223878 .43110658 .49924723 .44458009 .52708438 .44458009 .5657501 .44458009 .6050873 .43110658 .6332601 .40415956 .65026858 .3772227 .66727706 .3427938 .67578127 .3008728 .67578127H.2480011V.45674134Z"/>
<path id="font_18_72" d="M.5795593 .2323761H.20744324C.20744324 .19639588 .21911113 .16974385 .2424469 .15242005 .26579286 .1351064 .2911377 .12644959 .31848146 .12644959 .3471578 .12644959 .36983238 .13027954 .38650514 .13793946 .4031779 .14559937 .42218528 .16075643 .44352723 .18341065L.5715637 .1194458C.518219 .030049643 .42952983-.0146484379 .30549623-.0146484379 .22814434-.0146484379 .16179402 .011850993 .10644531 .06484985 .05110677 .11784872 .0234375 .18167623 .0234375 .2563324 .0234375 .33099876 .05110677 .3949941 .10644531 .44831849 .16179402 .501653 .22814434 .5283203 .30549623 .5283203 .38685609 .5283203 .45303855 .5048218 .5040436 .4578247 .5550588 .4108378 .5805664 .34368388 .5805664 .25636292 .5805664 .2443695 .5802307 .2363739 .5795593 .2323761M.21244812 .330307H.40751649C.40351869 .35695903 .39301554 .3774465 .37600709 .3917694 .3590088 .40609233 .33716838 .41325379 .31048585 .41325379 .2811381 .41325379 .25779215 .40558879 .240448 .3902588 .22311402 .37493897 .21378072 .35495506 .21244812 .330307Z"/>
<path id="font_18_68" d="M.09539795 .06384277C.047424318 .11618042 .0234375 .18034363 .0234375 .2563324 .0234375 .33233134 .047424318 .39666239 .09539795 .44932557 .14338176 .5019887 .2043457 .5283203 .2782898 .5283203 .34625245 .5283203 .40222169 .50704959 .4461975 .46450807V.5136719H.62319949V.00036621095H.4481964V.058395387H.4461975C.40222169 .009699504 .34625245-.0146484379 .2782898-.0146484379 .2043457-.0146484379 .14338176 .0115153 .09539795 .06384277M.24589539 .34326173C.22292583 .32061769 .21144104 .29164125 .21144104 .2563324 .21144104 .22103374 .22242737 .19222515 .24440003 .16990662 .26638285 .14759827 .29535423 .13644409 .3313141 .13644409 .36594139 .13644409 .39440919 .14776612 .41671754 .17041016 .43903605 .1930542 .4501953 .22169495 .4501953 .2563324 .4501953 .29164125 .43870545 .32061769 .4157257 .34326173 .39275614 .36590577 .36461894 .37722779 .3313141 .37722779 .29734803 .37722779 .26887513 .36590577 .24589539 .34326173Z"/>
<path id="font_18_83" d="M.58766177 .4498291C.6356761 .39750163 .6596832 .3333384 .6596832 .25733949 .6596832 .18134053 .6356761 .11700948 .58766177 .06434631 .5396576 .0116831469 .4786428-.0146484379 .4046173-.0146484379 .33659364-.0146484379 .2805786 .0066986086 .23657227 .0493927V-.25976563H.059570314V.5137024H.23457337V.45550538H.23657227C.2805786 .50404867 .33659364 .5283203 .4046173 .5283203 .4786326 .5283203 .5396474 .50215658 .58766177 .4498291M.4371643 .17041016C.46017457 .1930542 .4716797 .22202556 .4716797 .25732423 .4716797 .29263307 .460673 .32144166 .43865968 .34375 .4166565 .3660685 .38764445 .37722779 .35162355 .37722779 .3169454 .37722779 .2884318 .36590577 .26608277 .34326173 .2437439 .32061769 .23257447 .29197694 .23257447 .25733949 .23257447 .22203064 .24407959 .1930542 .26708985 .17041016 .2901001 .14776612 .31827799 .13644409 .35162355 .13644409 .38564048 .13644409 .41415406 .14776612 .4371643 .17041016Z"/>
<path id="font_18_79" d="M.059570314 0V.8605194H.23657227V0H.059570314Z"/>
<path id="font_19_12" d="M.3207245 .25169374H.21972656V.15068054C.21972656 .13867696 .21837361 .12967937 .21566773 .123687747 .212972 .116353359 .20891826 .11001587 .20350647 .10467529 .19809468 .09934489 .18964131 .09667969 .17814636 .09667969 .1693573 .09667969 .16226197 .09934489 .15686035 .10467529 .14603679 .11601766 .140625 .13135274 .140625 .15068054V.58369448C.14128621 .58902487 .14194744 .5938568 .14260865 .5981903 .14328003 .6025238 .14428203 .60668948 .14561463 .61068728 .14829 .6173503 .15213013 .62351486 .15713501 .6291809 .1621399 .6348572 .1693166 .6376953 .17866516 .6376953 .1900177 .6376953 .19836426 .6350301 .20370484 .6296997 .21438599 .61835739 .21972656 .6030223 .21972656 .58369448V.48268128H.3207245V.5834961C.31939189 .61343386 .3133901 .63971456 .30271913 .66233828 .2980601 .6723277 .29222618 .68214419 .2852173 .6917877 .2782186 .7014313 .26971946 .70991519 .25971986 .7172394 .24972026 .7245534 .23788452 .73054 .22421265 .735199 .21055095 .739858 .19472249 .7421875 .1767273 .7421875 .15872193 .7421875 .14272054 .7398529 .12872315 .7351837 .114725749 .7305247 .10272726 .72453817 .09272766 .7172241 .082728069 .7098999 .074391689 .70141097 .067718509 .6917572 .0610555 .68210348 .055389406 .6722819 .050720216 .6622925 .040059408 .63965865 .034062704 .6133626 .032730104 .58340457V.15097046C.034062704 .12034098 .040059408 .09370931 .050720216 .07107544 .055389406 .06109619 .0610555 .051442464 .067718509 .042114259 .074391689 .032796224 .082728069 .024475098 .09272766 .017150879 .11338806 .0005086263 .14138794-.0078125 .1767273-.0078125 .21139527-.0078125 .23905945 .00050354006 .25971986 .01713562 .26971946 .024459839 .2782186 .03277588 .2852173 .04208374 .29222618 .051401777 .2980601 .061050416 .30271913 .07102966 .3133901 .09365336 .31939189 .120269779 .3207245 .1508789V.25169374Z"/>
<path id="font_19_188" d="M.2899933 .13305664V.41381837C.28933207 .42714439 .28766886 .43946839 .28500367 .4507904 .28233848 .46211244 .27867127 .47310386 .27400209 .48376466 .2659963 .5010783 .25315858 .5172272 .23548889 .5322113 .21782939 .54719546 .19266765 .5546875 .16000366 .5546875 .12666829 .5546875 .10166931 .5473633 .085006717 .53271487 .06767273 .5180562 .05467224 .5007324 .04600525 .4807434 .037338258 .46076457 .03233846 .43745423 .03100586 .41081239V.13606262C.031667074 .12273661 .03333028 .110076908 .035995485 .098083499 .038660688 .08610026 .04232788 .07477824 .04699707 .06411743 .05500285 .046132406 .06766764 .029647828 .084991458 .014663696 .10232544-.00032043458 .12732952-.0078125 .16000366-.0078125 .19333904-.0078125 .21866863-.00048319499 .23599243 .014175415 .2693278 .041478475 .2873281 .08110555 .2899933 .13305664M.19482422 .41078187V.13601685C.19482422 .12535604 .19351197 .11603292 .19088745 .108047489 .18892415 .1007131 .18548076 .0943807 .18055725 .08905029 .17564392 .08371989 .16859944 .08105469 .15942383 .08105469 .15089925 .08105469 .14401753 .08371989 .13877869 .08905029 .1295929 .1010437 .125 .11669922 .125 .13601685V.41078187C.125 .42144267 .12631226 .43077088 .12893677 .43876649 .13090007 .4460907 .13417562 .45258079 .13876343 .4582367 .14335124 .4639028 .15023804 .46673585 .15942383 .46673585 .16859944 .46673585 .17581177 .46407066 .18106079 .45874024 .1902364 .44742839 .19482422 .43144227 .19482422 .41078187Z"/>
<path id="font_19_181" d="M.140625 0V.43089295C.14196778 .43355815 .1434784 .43588767 .14515686 .43788148 .1468455 .43988548 .1483612 .44188944 .14970398 .44389344 .15308126 .44723 .15662129 .45023094 .1603241 .45289613 .16403707 .4555613 .16858928 .45689393 .17398072 .45689393 .18004354 .45689393 .18560283 .4555613 .19065857 .45289613 .19571431 .45023094 .19824219 .4435679 .19824219 .4329071V0H.29882813V.4477539C.29882813 .45907594 .2973226 .47106425 .29431153 .48371888 .29131065 .49638368 .2868093 .50804647 .2808075 .5187073 .2748057 .52870687 .26696269 .5372009 .25727845 .54418948 .2475942 .5511882 .2360789 .5546875 .22273255 .5546875 .21405538 .5546875 .20537822 .5524089 .19670105 .54785159 .18802388 .5432027 .17984517 .53737899 .17216492 .53038027 .16448467 .5233917 .15797425 .51723226 .15263367 .51190188 .1459605 .50523886 .1419576 .50157168 .140625 .50090029V.546875H.040039064V0H.140625Z"/>
<path id="font_19_139" d="M.2932129 .19595337H.19921875V.13601685C.19921875 .124684657 .1978658 .115356449 .19515991 .10803223 .19311524 .10070801 .18954976 .0943807 .1844635 .08905029 .1793874 .08371989 .1720988 .08105469 .16259766 .08105469 .15378826 .08105469 .14667256 .08371989 .14125061 .08905029 .13108826 .10103353 .12600708 .11668396 .12600708 .13600159V.2548828H.29222108V.41378785C.29222108 .42711387 .2908834 .43943788 .288208 .4507599 .28554283 .46209208 .2818756 .4730835 .27720643 .48373414 .26921083 .5010579 .25637818 .5172119 .2387085 .53219607 .221049 .54719039 .19588216 .5546875 .16320801 .5546875 .12988281 .5546875 .10488383 .5473633 .08821106 .53271487 .05354309 .50407919 .034876508 .46344505 .032211305 .41081239V.13606262C.03288269 .12273661 .034550985 .110076908 .037216188 .098083499 .03988139 .08610026 .043548585 .07477824 .048217775 .06411743 .05621338 .046132406 .06904602 .029647828 .0867157 .014663696 .104385379-.00032043458 .1295522-.0078125 .16221619-.0078125 .19555156-.0078125 .22088623-.00048828127 .23822022 .014160156 .25621543 .028808594 .2695465 .045618696 .2782135 .064590457 .2868805 .08357239 .29188029 .10638428 .2932129 .13302613V.19595337M.12600708 .33398438V.4108429C.12666829 .41616313 .1273346 .42115275 .12800598 .42581178 .12867737 .4304708 .12967937 .4347992 .13101197 .438797 .13368733 .44612123 .1373647 .4526062 .14204407 .45825196 .14672344 .46390788 .15374248 .46673585 .1631012 .46673585 .1724701 .46673585 .17982483 .4640757 .1851654 .4587555 .1945343 .44744364 .19921875 .43147279 .19921875 .4108429V.33398438H.12600708Z"/>
<path id="font_19_129" d="M.1328125 .12600708V.42086793C.1328125 .43086753 .13416036 .44069419 .13685608 .4503479 .13956197 .4600118 .14764913 .46484376 .16111756 .46484376 .17257183 .46484376 .18031819 .46168009 .18435669 .45535279 .18840535 .44902549 .19042969 .43753053 .19042969 .42086793V.35490418H.29101563V.39785768C.29101563 .4284973 .28835044 .45380656 .28302003 .4737854 .2776896 .49376426 .2693634 .5097453 .25804139 .5217285 .24739075 .5337219 .23390198 .5422109 .21757508 .54719546 .20124817 .5521901 .182429 .5546875 .16111756 .5546875 .14313253 .5546875 .12614441 .5520223 .1101532 .5466919 .09417216 .54137167 .08052063 .5323842 .06919861 .5197296 .057876588 .5070648 .048884076 .49040733 .04222107 .46975709 .035558065 .44911704 .032226564 .42347718 .032226564 .39283753V.15405274C.032226564 .123413089 .035558065 .09776815 .04222107 .07711792 .048884076 .056467695 .057876588 .03981018 .06919861 .027145386 .08052063 .014500936 .09417216 .0055135095 .1101532 .00018310547 .12614441-.0051472985 .14313253-.0078125 .16111756-.0078125 .182429-.0078125 .20124817-.005315145 .21757508-.00032043458 .23390198 .004674276 .24739075 .013163249 .25804139 .025146485 .2693634 .037139894 .2776896 .05312602 .28302003 .07310486 .28835044 .0930837 .29101563 .118387859 .29101563 .14901734V.20198059H.19042969V.12600708C.19042969 .10934448 .18840535 .097849529 .18435669 .09152222 .18031819 .08519491 .17257183 .08203125 .16111756 .08203125 .14764913 .08203125 .13956197 .086858119 .13685608 .09651184 .13416036 .10617574 .1328125 .116007488 .1328125 .12600708Z"/>
<path id="font_19_213" d="M.16113281 .6816406H.060546876V.546875H.009765625V.4560547H.060546876V.1761322C.060546876 .16014099 .061375936 .14164734 .06303406 .120651248 .064702358 .09965515 .068873088 .0794932 .075546268 .060165407 .08287048 .04150899 .094192508 .025512696 .10951233 .012176514 .12484232-.0011494955 .14717102-.0078125 .17649842-.0078125 .19248963-.0078125 .20548503-.0068155925 .21548462-.0048217775 .21813965-.004160563 .22063191-.0034942628 .22296143-.002822876 .2253011-.0021616619 .22780355-.0015004476 .23046875-.0008392334V.0977478C.22842407 .097076419 .2263794 .09674072 .22433472 .09674072 .22230022 .09674072 .2202657 .09641012 .2182312 .0957489 .21483357 .095077518 .2107544 .094573978 .20599365 .09423828 .20123291 .09391276 .19681804 .09375 .19274903 .09375 .18459066 .09375 .17830403 .097086589 .17388916 .103759769 .16947429 .110432948 .1662445 .11810303 .16419983 .12677002 .16215515 .1361084 .16113281 .14578247 .16113281 .15579224 .16113281 .165802 .16113281 .17514546 .16113281 .18382263V.4560547H.23046875V.546875H.16113281V.6816406Z"/>
<path id="font_19_285" d="M0 0Z"/>
<path id="font_19_33" d="M.21289063 .4710083H.32128907V.5836792C.31995646 .61357626 .31393434 .6398265 .30322267 .6624298 .2985433 .67239889 .292689 .68220016 .2856598 .6918335 .27863059 .70147708 .27009584 .7099559 .26005555 .7172699 .25001527 .7245738 .23815918 .7305501 .2244873 .735199 .2108256 .739858 .19499715 .7421875 .17700196 .7421875 .15899658 .7421875 .1429952 .7398529 .1289978 .7351837 .115000408 .7305247 .103001918 .72453817 .09300232 .7172241 .083002727 .7098999 .07466634 .70141097 .067993167 .6917572 .06133016 .68210348 .055664064 .6722819 .050994874 .6622925 .040334066 .63965865 .03433736 .6133626 .03300476 .58340457V.15097046C.03167216 .12101237 .035669965 .0943807 .04499817 .07107544 .04899597 .06109619 .054163618 .051442464 .0605011 .042114259 .066838588 .032796224 .07433573 .024475098 .08299255 .017150879 .09233093 .009155273 .10316467 .0029958089 .115493778-.0013275147 .12783306-.0056508386 .14266968-.0078125 .16000366-.0078125 .17733765-.0078125 .19317119-.0038248699 .20750427 .0041503908 .22183736 .012135823 .23400371 .022440592 .2440033 .035064699L.25704957 .00016784668H.32128907V.36621095H.17001343V.27539063H.21289063V.14204407C.21289063 .13000997 .21156311 .12098185 .20890808 .11495972 .2069041 .10760498 .20340984 .101252239 .1984253 .09590149 .19344075 .09056091 .18629964 .087890628 .17700196 .087890628 .16836548 .087890628 .16138713 .090555828 .1560669 .09588623 .14609783 .10720825 .14111328 .122538249 .14111328 .14187622V.5837097C.14111328 .5943807 .1424408 .6033783 .14509583 .6107025 .14708965 .61736556 .15057881 .6235301 .15556336 .62919619 .1605479 .63486227 .16769409 .6376953 .17700196 .6376953 .18629964 .6376953 .1936137 .6350352 .19894409 .62971499 .20824178 .61839297 .21289063 .6030884 .21289063 .58380129V.4710083Z"/>
<path id="font_19_174" d="M.040039064 0H.140625V.734375H.040039064V0Z"/>
<path id="font_19_128" d="M.040039064 .734375V0H.140625V.035980226C.14529419 .032002767 .14963277 .02818807 .15364075 .024536133 .15764873 .020884196 .1619873 .017400107 .1666565 .014083862 .17399089 .008773804 .1825002 .0037994385 .19218445-.0008392334 .2018687-.0054880778 .21138-.0078125 .22071839-.0078125 .23474629-.0078125 .24659729-.0043182375 .25627137 .002670288 .2659556 .009668986 .2741343 .018493653 .2808075 .029144288 .2868093 .03914388 .29131065 .05047099 .29431153 .06312561 .2973226 .075780238 .29882813 .087768558 .29882813 .099090579V.44778443C.29882813 .45910646 .2973226 .47109477 .29431153 .4837494 .29131065 .49640403 .2868093 .5080617 .2808075 .51872256 .2741343 .5287221 .2659556 .5372162 .25627137 .5442047 .24659729 .55119326 .23474629 .5546875 .22071839 .5546875 .21070862 .5546875 .20136516 .552358 .19268799 .547699 .18266805 .5430298 .1736552 .5376943 .16564942 .5316925 .15764363 .52570089 .14930217 .5187073 .140625 .51071169V.734375H.040039064M.140625 .11993408V.4267578C.140625 .43475343 .14382427 .44225059 .15022278 .44924928 .15663147 .45624797 .1635437 .4597473 .17095948 .4597473 .17836507 .4597473 .1847636 .45657859 .19015503 .4502411 .19554647 .4439138 .19824219 .43608604 .19824219 .4267578V.11993408C.19824219 .11060587 .19554647 .10277303 .19015503 .09643555 .1847636 .09010824 .17836507 .08694458 .17095948 .08694458 .1635437 .08694458 .15663147 .09010824 .15022278 .09643555 .14382427 .10277303 .140625 .11060587 .140625 .11993408Z"/>
<path id="font_19_117" d="M.19236756 .41677857V.35684205C.19038391 .35151164 .18508403 .3463491 .1764679 .34135438 .16786194 .33635966 .15726216 .3305359 .14466858 .32388307 .13208516 .31722007 .11883545 .3090566 .10491943 .2993927 .09100342 .28973899 .07807922 .2772522 .06614685 .26193238 .05422465 .24728394 .04428609 .22880046 .036331178 .20648194 .028386435 .1841634 .024414063 .15768941 .024414063 .12705994 .024414063 .09842428 .027409872 .075276698 .03340149 .057617189 .03940328 .039967855 .046732587 .026479086 .055389406 .017150879 .06339518 .007171631 .07206217 .0005187988 .08139038-.0028076173 .09071859-.0061442058 .09870911-.0078125 .10536194-.0078125 .115361537-.0078125 .12502544-.0059814455 .13435364-.002319336 .14368184 .0013427734 .15167745 .00583903 .15834046 .011169434 .16567485 .016499838 .17150879 .022160849 .17584229 .028152466 .18017578 .034154256 .18367005 .039489747 .18632508 .044158937H.1933136C.1933136 .040822347 .19364929 .033991498 .19432068 .023666382 .19499207 .013341268 .19765727 .0055135095 .20231629 .00018310547H.30093385C.29894004 .012176514 .29727683 .024831137 .2959442 .038146974 .2946116 .05147298 .2939453 .07045492 .2939453 .09509277V.4308014C.2939453 .4487864 .2906138 .46543885 .2839508 .48075868 .2772878 .4960785 .2682953 .5090688 .25697328 .5197296 .23232524 .54303488 .2036845 .5546875 .17105103 .5546875 .13174439 .5546875 .09943644 .54036459 .0741272 .51171877 .06213379 .49840293 .052637739 .48291526 .045639039 .46525575 .038650514 .44759623 .03515625 .42877708 .03515625 .40879823V.38581849H.13574219C.13574219 .38981629 .13574219 .39397685 .13574219 .39830018 .13574219 .40263368 .13574219 .4071299 .13574219 .41178895 .13574219 .41644798 .13591004 .4209442 .13624573 .4252777 .13658142 .4296112 .13708496 .43377687 .13775635 .43777467 .1391093 .4457601 .14180501 .45258079 .1458435 .4582367 .14989217 .4639028 .15629578 .46673585 .16505432 .46673585 .17719014 .46673585 .18562317 .46107484 .1903534 .4497528 .19169617 .44509379 .19236756 .43960063 .19236756 .43327333 .19236756 .426946 .19236756 .42144776 .19236756 .41677857M.19335938 .26393128V.124069217C.19335938 .114741008 .18917339 .106913249 .18080139 .10058594 .1724294 .09425863 .16255188 .09109497 .15116883 .09109497 .14514669 .09109497 .1402893 .09309387 .13659668 .097091678 .13291423 .10108948 .1300761 .10608419 .12808228 .112075809 .12606812 .11740621 .12472534 .122899379 .124053958 .1285553 .12338257 .13422139 .123046878 .13872274 .123046878 .14205933 .123046878 .16801961 .12857056 .19215393 .13961792 .21446228 .15067546 .2367808 .16858928 .25327049 .19335938 .26393128Z"/>
</defs>
<g clip-path="url(#clip_0)">
<path transform="matrix(.75,0,0,.75,0,0)" d="M0 0H500V500H0Z" fill="#ffffff"/>
</g>
<g clip-path="url(#clip_1)">
<path transform="matrix(.75,0,0,.75,0,0)" d="M0 0H500V500H0Z" fill="#ffffff"/>
</g>
<g clip-path="url(#clip_2)">
<path transform="matrix(.26787088,-.2678802,.2678802,.26787088,30.756438,169.97467)" d="M226.96 113.48C226.96 117.19662 226.77787 120.904277 226.41356 124.60298 226.04927 128.3017 225.50458 131.97365 224.7795 135.61884 224.05443 139.26404 223.15245 142.86493 222.07358 146.4215 220.9947 149.97806 219.74411 153.47319 218.32183 156.90689 216.89955 160.34059 215.31241 163.69634 213.56041 166.97409 211.80841 170.25185 209.9 173.43585 207.83516 176.5261 205.77033 179.61635 203.55902 182.59798 201.20124 185.47097 198.84345 188.34394 196.35053 191.09444 193.72248 193.72248 191.09444 196.35053 188.34394 198.84345 185.47095 201.20122 182.59798 203.55902 179.61635 205.77033 176.5261 207.83516 173.43585 209.9 170.25185 211.80843 166.97409 213.56043 163.69634 215.31243 160.34059 216.89955 156.90689 218.32183 153.47319 219.74411 149.97806 220.99469 146.4215 222.07357 142.86493 223.15245 139.26404 224.05443 135.61884 224.7795 131.97365 225.50458 128.3017 226.04927 124.60299 226.41358 120.90428 226.77787 117.19662 226.96 113.48 226.96 109.7634 226.96 106.05574 226.77787 102.357028 226.41356 98.65831 226.04927 94.98635 225.50458 91.34115 224.7795 87.69595 224.05443 84.09507 223.15245 80.5385 222.07358 76.981929 220.9947 73.486789 219.74411 70.05308 218.32183 66.619388 216.89955 63.263658 215.31241 59.985898 213.56041 56.708139 211.80841 53.524137 209.9 50.433885 207.83516 47.34364 205.77033 44.362028 203.55902 41.489046 201.20124 38.61607 198.84345 35.865564 196.35053 33.237524 193.72248 30.609482 191.09444 28.116566 188.34394 25.758774 185.47095 23.400982 182.59798 21.189667 179.61635 19.124829 176.5261 17.059992 173.43585 15.151573 170.25185 13.399574 166.97409 11.647577 163.69634 10.060436 160.34059 8.63815 156.90689 7.215865 153.47319 5.9652855 149.97806 4.8864109 146.4215 3.8075357 142.86493 2.905561 139.26404 2.1804863 135.61884 1.4554117 131.97365 .9107287 128.3017 .5464372 124.60299 .18214572 120.90428 0 117.19662 0 113.48 0 109.7634 .18214572 106.05574 .5464372 102.357028 .9107287 98.65831 1.4554117 94.98635 2.1804863 91.34115 2.905561 87.69595 3.8075355 84.09507 4.88641 80.5385 5.9652855 76.981929 7.215865 73.486789 8.63815 70.05308 10.060436 66.619388 11.647577 63.263658 13.399575 59.985898 15.151573 56.708139 17.059992 53.524137 19.124829 50.433885 21.189667 47.34364 23.400982 44.362028 25.758774 41.489046 28.116566 38.61607 30.609482 35.865564 33.237524 33.237524 35.865564 30.609482 38.61607 28.116566 41.489049 25.758774 44.362028 23.400982 47.34364 21.189667 50.433885 19.124829 53.524137 17.059992 56.708139 15.151573 59.985898 13.399574 63.263658 11.647577 66.619388 10.060436 70.05308 8.63815 73.486789 7.215865 76.981929 5.9652855 80.538509 4.8864109 84.09508 3.8075357 87.69596 2.905561 91.341159 2.1804863 94.98635 1.4554117 98.65831 .9107287 102.357028 .5464372 106.05574 .18214572 109.7634 0 113.48 0 117.19662 0 120.904277 .18214572 124.60298 .5464372 128.3017 .9107287 131.97365 1.4554117 135.61884 2.1804863 139.26404 2.905561 142.86493 3.8075355 146.4215 4.88641 149.97806 5.9652855 153.47319 7.215865 156.90689 8.63815 160.34059 10.060436 163.69634 11.647577 166.97409 13.399575 170.25185 15.151573 173.43585 17.059992 176.5261 19.124829 179.61635 21.189667 182.59798 23.400982 185.47097 25.758774 188.34394 28.116566 191.09444 30.609482 193.72248 33.237524 196.35053 35.865564 198.84345 38.61607 201.20122 41.489049 203.55902 44.362028 205.77033 47.34364 207.83516 50.433885 209.9 53.524137 211.80843 56.708139 213.56043 59.985898 215.31243 63.263658 216.89955 66.619388 218.32183 70.05308 219.74411 73.486789 220.99469 76.981929 222.07357 80.538509 223.15245 84.09508 224.05443 87.69596 224.7795 91.341159 225.50458 94.98635 226.04927 98.65831 226.41358 102.357028 226.77787 106.05574 226.96 109.7634 226.96 113.48Z" fill="#00b733"/>
</g>
<g clip-path="url(#clip_3)">
<path transform="matrix(1.3662832,0,0,1.3662832,47.29352,126.20016)" d="M32.4 64.8C14.5 64.8 0 50.2 0 32.4 0 14.600002 14.5 0 32.4 0 50.300004 0 64.8 14.5 64.8 32.4 64.8 50.300004 50.2 64.8 32.4 64.8ZM32.4 2C15.6 2 2 15.6 2 32.4 2 49.2 15.6 62.800004 32.4 62.800004 49.2 62.800004 62.800004 49.200006 62.800004 32.4 62.8 15.6 49.1 2 32.4 2Z" fill="#157c00"/>
</g>
<g clip-path="url(#clip_4)">
<path transform="matrix(.118240859,0,0,.118240859,94.53533,196.54978)" d="M0 0H256V399H0Z" fill="#00b733"/>
</g>
<g clip-path="url(#clip_5)">
<use data-text="." xlink:href="#font_6_419" transform="matrix(95.82193,0,0,-95.82193,60.33855,178.61359)" fill="#ffffff"/>
<use data-text="." xlink:href="#font_6_419" transform="matrix(95.82193,0,0,-95.82193,81.309299,178.61359)" fill="#ffffff"/>
<use data-text="." xlink:href="#font_6_419" transform="matrix(95.82193,0,0,-95.82193,102.280048,178.61359)" fill="#ffffff"/>
</g>
<g clip-path="url(#clip_7)">
<path transform="matrix(.13803789,0,0,.13803789,-7.6168129,161.5688)" d="M718.5 297.6C718.5 307.3468 718.02236 317.0701 717.06698 326.7699 716.1116 336.46977 714.68319 346.0994 712.7816 355.65885 710.8801 365.21833 708.5147 374.66163 705.68539 383.9887 702.85598 393.3158 699.57638 402.48176 695.84646 411.48658 692.1165 420.49143 687.9543 429.29179 683.3597 437.88764 678.76516 446.48356 673.7603 454.83357 668.3453 462.93766 662.9303 471.0418 657.13119 478.86109 650.9479 486.39546 644.76467 493.9298 638.227 501.14299 631.33499 508.03498 624.443 514.927 617.2298 521.4646 609.69546 527.6479 602.1611 533.8311 594.3418 539.63027 586.2377 545.0453 578.1335 550.46029 569.7835 555.4651 561.1876 560.0597 552.59176 564.6543 543.7913 568.8165 534.7865 572.54647 525.7817 576.27639 516.6157 579.556 507.2887 582.3854 497.9616 585.21469 488.5183 587.5801 478.95884 589.48159 469.39936 591.3831 459.7697 592.8116 450.0699 593.76699 440.3701 594.72238 430.6468 595.2 420.9 595.2 411.15324 595.2 401.42994 594.72238 391.73008 593.767 382.0302 592.8116 372.40055 591.3831 362.84107 589.48159 353.2816 587.5801 343.83833 585.21469 334.51124 582.3854 325.18418 579.556 316.0182 576.27639 307.01335 572.54647 298.0085 568.8165 289.20817 564.6543 280.61228 560.05978 272.01643 555.4651 263.66639 550.46029 255.56224 545.0453 247.45812 539.63027 239.63887 533.8311 232.10453 527.6479 224.57018 521.4646 217.35701 514.927 210.465 508.03495 203.573 501.14295 197.03536 493.92979 190.85207 486.3954 184.6688 478.86106 178.86965 471.0418 173.45462 462.93766 168.03961 454.83354 163.0348 446.48353 158.4402 437.8876 153.84561 429.29176 149.68335 420.49137 145.95342 411.4865 142.2235 402.4817 138.94387 393.31575 136.11454 383.98866 133.2852 374.6616 130.91977 365.2183 129.01827 355.6588 127.116779 346.09938 125.68836 336.46974 124.73302 326.7699 123.777667 317.0701 123.29999 307.3468 123.29999 297.6 123.29999 287.85325 123.777667 278.12995 124.73302 268.4301 125.68836 258.73027 127.116779 249.10059 129.01827 239.54109 130.91977 229.98163 133.2852 220.53835 136.11455 211.21126 138.94388 201.8842 142.2235 192.71825 145.95342 183.7134 149.68335 174.70856 153.84563 165.9082 158.44022 157.31232 163.0348 148.71645 168.03961 140.36644 173.45462 132.2623 178.86965 124.15816 184.6688 116.33891 190.85207 108.804569 197.03536 101.27021 203.573 94.05702 210.465 87.165019 217.35701 80.27301 224.57018 73.73537 232.10453 67.552089 239.63887 61.3688 247.45812 55.569654 255.56226 50.154638 263.6664 44.739625 272.01646 39.73482 280.6123 35.14023 289.20817 30.545636 298.0085 26.383376 307.01338 22.653449 316.01823 18.923523 325.18418 15.643892 334.51124 12.814554 343.83833 9.985218 353.2816 7.6198 362.84107 5.7183 372.40055 3.8168 382.0302 2.3883754 391.73008 1.4330253 401.42994 .47767509 411.15324 0 420.9 0 430.6468 0 440.3701 .47767509 450.0699 1.4330253 459.7697 2.3883754 469.39936 3.8168 478.95884 5.7183 488.5183 7.6198 497.9616 9.985218 507.28874 12.814554 516.6158 15.643892 525.78176 18.923523 534.78659 22.653449 543.79147 26.383376 552.59188 30.545636 561.18777 35.14023 569.78359 39.73482 578.13357 44.739625 586.2377 50.154638 594.3418 55.569654 602.1611 61.3688 609.69546 67.552089 617.2298 73.73537 624.443 80.27301 631.33499 87.165019 638.227 94.05702 644.76467 101.2702 650.9479 108.80456 657.13119 116.33891 662.9303 124.15815 668.3453 132.26229 673.7603 140.36643 678.76516 148.71645 683.3597 157.31232 687.9543 165.90819 692.1165 174.70854 695.84646 183.71338 699.57638 192.71823 702.856 201.88419 705.6854 211.21126 708.5147 220.53835 710.8801 229.98163 712.7817 239.54109 714.68319 249.10059 716.11166 258.73027 717.067 268.4301 718.02236 278.12995 718.5 287.85325 718.5 297.6Z" fill="#00b733"/>
</g>
<g clip-path="url(#clip_8)">
<path transform="matrix(.10772524,0,0,.10772524,-15.894633,138.01807)" d="M980.32 600H963.07C963.06 700.31 922.46 790.97 856.73 856.73 790.97 922.46 700.31 963.07 600 963.08 499.69 963.07 409.03 922.47006 343.27 856.74 277.54 790.97 236.93 700.32 236.92 600 236.93 499.69 277.53 409.03 343.26 343.27 409.03 277.54 499.69 236.93 600 236.92 700.31 236.93 790.97 277.53 856.73 343.26 922.46 409.03 963.07 499.69 963.08 600H980.32 997.57C997.56 380.41999 819.57 202.44 600 202.43 380.42 202.44 202.44 380.42 202.43 600 202.44 819.58 380.42 997.56 600 997.57 819.58 997.56 997.56 819.58 997.57 600H980.32Z" fill="#157c00"/>
</g>
<g clip-path="url(#clip_9)">
<path transform="matrix(.052634553,-.052636386,.052636386,.052634553,9.402661,194.73783)" d="M226.96 113.48C226.95999 120.9312 226.23316 128.3108 224.7795 135.61884 223.32584 142.92687 221.17328 150.02288 218.32183 156.90689 215.47037 163.79091 211.97483 170.33065 207.83516 176.5261 203.6955 182.72154 198.99126 188.45368 193.72248 193.72248 188.45368 198.99126 182.72154 203.6955 176.5261 207.83516 170.33065 211.97483 163.79091 215.47037 156.90689 218.32183 150.02288 221.17328 142.92687 223.32584 135.61884 224.7795 128.3108 226.23316 120.9312 226.95999 113.48 226.96 106.0288 226.95999 98.649188 226.23316 91.34115 224.7795 84.03312 223.32584 76.937099 221.17328 70.05308 218.32183 63.169065 215.47037 56.629335 211.97483 50.433885 207.83516 44.238439 203.6955 38.506319 198.99126 33.237524 193.72248 27.968724 188.45368 23.264494 182.72154 19.124829 176.5261 14.985161 170.33065 11.489602 163.79091 8.63815 156.90689 5.7866985 150.02288 3.6341439 142.92687 2.1804863 135.61884 .7268287 128.3108 0 120.9312 0 113.48 0 106.0288 .7268287 98.649188 2.1804863 91.34115 3.6341439 84.03312 5.7866985 76.937099 8.63815 70.05308 11.489602 63.169065 14.985161 56.629335 19.124829 50.433885 23.264494 44.238439 27.968724 38.506319 33.237524 33.237524 38.506319 27.968724 44.238439 23.264494 50.433885 19.124829 56.629335 14.985161 63.169065 11.489602 70.05308 8.63815 76.937099 5.7866985 84.03312 3.6341439 91.341159 2.1804863 98.649188 .7268287 106.0288 0 113.48 0 120.9312 0 128.3108 .7268287 135.61884 2.1804863 142.92687 3.6341439 150.02288 5.7866985 156.90689 8.63815 163.79091 11.489602 170.33065 14.985161 176.5261 19.124829 182.72154 23.264494 188.45368 27.968724 193.72248 33.237524 198.99126 38.506319 203.6955 44.238439 207.83516 50.433885 211.97483 56.629335 215.47037 63.169065 218.32183 70.05308 221.17328 76.937099 223.32584 84.03312 224.7795 91.341159 226.23316 98.649188 226.95999 106.0288 226.96 113.48Z" fill="#157c00"/>
</g>
<g clip-path="url(#clip_10)">
<path transform="matrix(.0703687,-.07037116,.07037116,.0703687,9.402461,198.7629)" d="M226.96 113.48C226.95999 120.9312 226.23316 128.3108 224.7795 135.61884 223.32584 142.92687 221.17328 150.02288 218.32183 156.90689 215.47037 163.79091 211.97483 170.33065 207.83516 176.5261 203.6955 182.72154 198.99126 188.45368 193.72248 193.72248 188.45368 198.99126 182.72154 203.6955 176.5261 207.83516 170.33065 211.97483 163.79091 215.47037 156.90689 218.32183 150.02288 221.17328 142.92687 223.32584 135.61884 224.7795 128.3108 226.23316 120.9312 226.95999 113.48 226.96 106.0288 226.95999 98.649188 226.23316 91.34115 224.7795 84.03312 223.32584 76.937099 221.17328 70.05308 218.32183 63.169065 215.47037 56.629335 211.97483 50.433885 207.83516 44.238439 203.6955 38.506319 198.99126 33.237524 193.72248 27.968724 188.45368 23.264494 182.72154 19.124829 176.5261 14.985161 170.33065 11.489602 163.79091 8.63815 156.90689 5.7866985 150.02288 3.6341439 142.92687 2.1804863 135.61884 .7268287 128.3108 0 120.9312 0 113.48 0 106.0288 .7268287 98.649188 2.1804863 91.34115 3.6341439 84.03312 5.7866985 76.937099 8.63815 70.05308 11.489602 63.169065 14.985161 56.629335 19.124829 50.433885 23.264494 44.238439 27.968724 38.506319 33.237524 33.237524 38.506319 27.968724 44.238439 23.264494 50.433885 19.124829 56.629335 14.985161 63.169065 11.489602 70.05308 8.63815 76.937099 5.7866985 84.03312 3.6341439 91.341159 2.1804863 98.649188 .7268287 106.0288 0 113.48 0 120.9312 0 128.3108 .7268287 135.61884 2.1804863 142.92687 3.6341439 150.02288 5.7866985 156.90689 8.63815 163.79091 11.489602 170.33065 14.985161 176.5261 19.124829 182.72154 23.264494 188.45368 27.968724 193.72248 33.237524 198.99126 38.506319 203.6955 44.238439 207.83516 50.433885 211.97483 56.629335 215.47037 63.169065 218.32183 70.05308 221.17328 76.937099 223.32584 84.03312 224.7795 91.341159 226.23316 98.649188 226.95999 106.0288 226.96 113.48Z" fill="#00b733"/>
</g>
<g clip-path="url(#clip_11)">
<path transform="matrix(.0000000013089968,-.75,.75,.0000000013089968,93.030269,243.7262)" d="M.00000000000002842171 .00000011920929H23.999999V4H.00000000000002842171M27.999999 .00000011920929H51.999998V4H27.999999M55.999998 .00000011920929H59.951V4H55.999998" fill="#157c00"/>
</g>
<g clip-path="url(#clip_12)">
<g clip-path="url(#clip_13)">
<g clip-path="url(#clip_14)">
<path transform="matrix(.124835398,-.18778682,.18778682,.124835398,93.547039,244.62302)" d="M0 0H256V297H0Z" fill="#ffffff"/>
</g>
</g>
</g>
<g clip-path="url(#clip_15)">
<path transform="matrix(.41936458,-.62179848,.62179848,.41936458,93.291019,241.62833)" d="M0 0H24V4H0M28 0H52V4H28M56 0H73.84809V4H56" fill="#157c00"/>
</g>
<g clip-path="url(#clip_16)">
<path transform="matrix(.035195978,0,0,.035195978,92.99804,185.70084)" d="M0 0H256V743H0Z" fill="#00b733"/>
</g>
<g clip-path="url(#clip_17)">
<use data-text="P" xlink:href="#font_18_51" transform="matrix(57.239999,0,0,-57.239999,142.1305,203.38437)" fill="#00b2ff"/>
<use data-text="e" xlink:href="#font_18_72" transform="matrix(57.239999,0,0,-57.239999,184.25566,203.38437)" fill="#00b2ff"/>
<use data-text="a" xlink:href="#font_18_68" transform="matrix(57.239999,0,0,-57.239999,222.77506,203.38437)" fill="#00b2ff"/>
<use data-text="p" xlink:href="#font_18_83" transform="matrix(57.239999,0,0,-57.239999,265.8805,203.38437)" fill="#00b733"/>
<use data-text="l" xlink:href="#font_18_79" transform="matrix(57.239999,0,0,-57.239999,308.97865,203.38437)" fill="#00b733"/>
<use data-text="e" xlink:href="#font_18_72" transform="matrix(57.239999,0,0,-57.239999,329.9843,203.38437)" fill="#00b733"/>
<use data-text="C" xlink:href="#font_19_12" transform="matrix(34.667234,0,0,-34.667234,187.7832,226.27336)"/>
<use data-text="o" xlink:href="#font_19_188" transform="matrix(34.667234,0,0,-34.667234,202.20178,226.27336)"/>
<use data-text="n" xlink:href="#font_19_181" transform="matrix(34.667234,0,0,-34.667234,215.75389,226.27336)"/>
<use data-text="n" xlink:href="#font_19_181" transform="matrix(34.667234,0,0,-34.667234,229.86055,226.27336)"/>
<use data-text="e" xlink:href="#font_19_139" transform="matrix(34.667234,0,0,-34.667234,243.96721,226.27336)"/>
<use data-text="c" xlink:href="#font_19_129" transform="matrix(34.667234,0,0,-34.667234,257.554,226.27336)"/>
<use data-text="t" xlink:href="#font_19_213" transform="matrix(34.667234,0,0,-34.667234,270.89814,226.27336)"/>
<use data-text=" " xlink:href="#font_19_285" transform="matrix(34.667234,0,0,-34.667234,281.81623,226.27336)"/>
<use data-text="G" xlink:href="#font_19_33" transform="matrix(34.667234,0,0,-34.667234,289.58036,226.27336)"/>
<use data-text="l" xlink:href="#font_19_174" transform="matrix(34.667234,0,0,-34.667234,304.48417,226.27336)"/>
<use data-text="o" xlink:href="#font_19_188" transform="matrix(34.667234,0,0,-34.667234,313.18409,226.27336)"/>
<use data-text="b" xlink:href="#font_19_128" transform="matrix(34.667234,0,0,-34.667234,326.7362,226.27336)"/>
<use data-text="a" xlink:href="#font_19_117" transform="matrix(34.667234,0,0,-34.667234,340.77357,226.27336)"/>
<use data-text="l" xlink:href="#font_19_174" transform="matrix(34.667234,0,0,-34.667234,354.39503,226.27336)"/>
<use data-text="." xlink:href="#font_6_419" transform="matrix(17.620514,0,0,-17.620514,92.086109,243.7209)" fill="#157c00"/>
</g>
</svg>
